<?xml version="1.0" encoding="utf-8"?>
<!-- Generator: Adobe Illustrator 18.0.0, SVG Export Plug-In . SVG Version: 6.00 Build 0)  -->
<!DOCTYPE svg PUBLIC "-//W3C//DTD SVG 1.1//EN" "http://www.w3.org/Graphics/SVG/1.1/DTD/svg11.dtd">
<svg version="1.1" id="Capa_1" xmlns="http://www.w3.org/2000/svg" xmlns:xlink="http://www.w3.org/1999/xlink" x="0px" y="0px"
	 viewBox="0 0 100 80" enable-background="new 0 0 100 80" xml:space="preserve">
<g id="Layer_x0020_1">
	<ellipse fill="#FFFFFF" cx="65.6" cy="6.5" rx="6.5" ry="6.5"/>
	<path fill="#FFFFFF" d="M57.9,76.2c0,2,1.6,3.7,3.6,3.7c2,0,3.7-1.6,3.7-3.7l0-30.6h1.6l0,30.6c0,2,1.6,3.7,3.6,3.7
		s3.6-1.6,3.6-3.7l0-52.8h1.6v19.5c0,3.9,5.1,3.9,5.1,0V22.9c0-4.3-2.5-8.6-7.6-8.6l-14.6,0c-4.6,0-7.5,3.8-7.5,8.4v20
		c0,3.9,5.1,3.9,5.1,0V23.4h1.6L57.9,76.2L57.9,76.2z"/>
	<path fill="#FFFFFF" d="M44.1,19.8c4.2,0,5.9,3.4,6.5,5.3l5.1,16.9c1,3.6-3.6,5.1-4.7,1.6l-4.6-15.5H45l8,27.6h-7.4v21.5
		c0,3.7-5.5,3.6-5.5,0V55.6h-2.2l0,21.6c0,3.7-5.5,3.7-5.5,0l0-21.5H25l8-27.6h-1.2L27,43.7c-1.1,3.4-5.8,2-4.7-1.6l5.1-16.9
		c0.6-1.9,2.2-5.3,6.5-5.3L44.1,19.8L44.1,19.8z"/>
	<ellipse fill="#FFFFFF" cx="39" cy="12.6" rx="6" ry="6"/>
	<path fill="#FFFFFF" d="M92.4,42.1c2.6,0,3.7,2.2,4.1,3.4L99.7,56c0.6,2.3-2.3,3.2-2.9,1l-2.9-9.7H93l5,17.3h-4.6v13.5
		c0,2.3-3.5,2.3-3.5,0V64.5h-1.4l0,13.6c0,2.3-3.5,2.3-3.5,0V64.6h-4.6l5-17.3h-0.8l-2.9,9.8c-0.7,2.1-3.6,1.3-2.9-1L82,45.4
		c0.3-1.2,1.4-3.4,4.1-3.4L92.4,42.1L92.4,42.1z"/>
	<ellipse fill="#FFFFFF" cx="89.2" cy="37.5" rx="3.8" ry="3.8"/>
	<ellipse fill="#FFFFFF" cx="10.3" cy="28.8" rx="4.5" ry="4.5"/>
	<path fill="#FFFFFF" d="M4.9,77.3c0,1.4,1.1,2.5,2.5,2.5c1.4,0,2.5-1.1,2.5-2.5L10,56h1.1l0,21.3c0,1.4,1.1,2.5,2.5,2.5
		s2.5-1.1,2.5-2.5l0-36.7h1.1v13.5c0,2.7,3.6,2.7,3.5,0V40.3c0-3-1.8-6-5.3-6l-10.1,0c-3.2,0-5.2,2.6-5.2,5.9v13.9
		c0,2.7,3.6,2.7,3.6,0V40.5H5L4.9,77.3L4.9,77.3z"/>
</g>
</svg>
