<?xml version="1.0" encoding="utf-8"?>
<!-- Generator: Adobe Illustrator 18.0.0, SVG Export Plug-In . SVG Version: 6.00 Build 0)  -->
<!DOCTYPE svg PUBLIC "-//W3C//DTD SVG 1.1//EN" "http://www.w3.org/Graphics/SVG/1.1/DTD/svg11.dtd">
<svg version="1.1" id="Layer_1" xmlns="http://www.w3.org/2000/svg" xmlns:xlink="http://www.w3.org/1999/xlink" x="0px" y="0px"
	 viewBox="57.3 6 25.3 31.8" enable-background="new 57.3 6 25.3 31.8" xml:space="preserve">
<g>
	<path fill="#FFFFFF" d="M80.9,7.4"/>
	<path fill="#FFFFFF" d="M80.9,8.3"/>
	<path fill="#FFFFFF" d="M81.4,9.6v24.8c0,0.2-0.2,0.4-0.4,0.4H62c-0.1,0-0.2,0-0.3-0.1l0,0c-0.3-0.3-0.1-0.8,0.3-0.8h18
		c0.2,0,0.4-0.2,0.4-0.4V7.8c0-0.2-0.2-0.4-0.4-0.4H60.4c-0.2,0-0.4,0.2-0.4,0.4v25.9c0,0.1,0,0.2,0.1,0.3l1.5,1.5
		c0.1,0.1,0.2,0.1,0.3,0.1h19.8c0.2,0,0.4-0.2,0.4-0.4V9.6c0-0.2-0.2-0.4-0.4-0.4h0C81.6,9.2,81.4,9.4,81.4,9.6z M66.4,15.9h2.4
		c0.2,0,0.4-0.2,0.4-0.4v-2.4c0-0.2,0.2-0.4,0.4-0.4h1.8c0.2,0,0.4,0.2,0.4,0.4v2.4c0,0.2,0.2,0.4,0.4,0.4h2.4
		c0.2,0,0.4,0.2,0.4,0.4v1.8c0,0.2-0.2,0.4-0.4,0.4h-2.4c-0.2,0-0.4,0.2-0.4,0.4v7.5c0,0.2-0.2,0.4-0.4,0.4h-1.8
		c-0.2,0-0.4-0.2-0.4-0.4v-7.5c0-0.2-0.2-0.4-0.4-0.4h-2.4c-0.2,0-0.4-0.2-0.4-0.4v-1.8C66,16.1,66.2,15.9,66.4,15.9z"/>
</g>
</svg>
