<?xml version="1.0" encoding="utf-8"?>
<!-- Generator: Adobe Illustrator 18.0.0, SVG Export Plug-In . SVG Version: 6.00 Build 0)  -->
<!DOCTYPE svg PUBLIC "-//W3C//DTD SVG 1.1//EN" "http://www.w3.org/Graphics/SVG/1.1/DTD/svg11.dtd">
<svg version="1.1" id="Layer_1" xmlns="http://www.w3.org/2000/svg" xmlns:xlink="http://www.w3.org/1999/xlink" x="0px" y="0px"
	 viewBox="174.3 -1 36.8 30" enable-background="new 174.3 -1 36.8 30" xml:space="preserve">
<g>
	<g id="Layer_x0020_1_1_">
		<ellipse fill="#FFFFFF" cx="198.9" cy="2.4" rx="2.3" ry="2.3"/>
		<path fill="#FFFFFF" d="M196.2,27.1c0,0.7,0.6,1.3,1.3,1.3c0.7,0,1.3-0.6,1.3-1.3V16.3h0.6v10.8c0,0.7,0.6,1.3,1.3,1.3
			c0.7,0,1.3-0.6,1.3-1.3V8.4h0.6v6.9c0,1.4,1.8,1.4,1.8,0V8.2c0-1.5-0.9-3-2.7-3h-5.2c-1.6,0-2.7,1.3-2.7,3v7.1
			c0,1.4,1.8,1.4,1.8,0V8.4h0.6L196.2,27.1L196.2,27.1z"/>
		<path fill="#FFFFFF" d="M191.3,7.1c1.5,0,2.1,1.2,2.3,1.9l1.8,6c0.4,1.3-1.3,1.8-1.7,0.6l-1.6-5.5h-0.5l2.8,9.8h-2.6v7.6
			c0,1.3-1.9,1.3-1.9,0v-7.7h-0.8v7.7c0,1.3-1.9,1.3-1.9,0v-7.6h-2.6l2.8-9.8h-0.4l-1.7,5.5c-0.4,1.2-2.1,0.7-1.7-0.6l1.8-6
			c0.2-0.7,0.8-1.9,2.3-1.9L191.3,7.1L191.3,7.1z"/>
		<ellipse fill="#FFFFFF" cx="189.5" cy="4.6" rx="2.1" ry="2.1"/>
		<path fill="#FFFFFF" d="M208.4,15c0.9,0,1.3,0.8,1.5,1.2L211,20c0.2,0.8-0.8,1.1-1,0.4l-1-3.4h-0.3l1.8,6.1h-1.6v4.8
			c0,0.8-1.2,0.8-1.2,0V23H207v4.8c0,0.8-1.2,0.8-1.2,0V23h-1.6l1.8-6.1h-0.3l-1,3.5c-0.2,0.7-1.3,0.5-1-0.4l1.1-3.8
			c0.1-0.4,0.5-1.2,1.5-1.2L208.4,15L208.4,15z"/>
		<ellipse fill="#FFFFFF" cx="207.2" cy="13.4" rx="1.3" ry="1.3"/>
		<ellipse fill="#FFFFFF" cx="179.3" cy="10.3" rx="1.6" ry="1.6"/>
		<path fill="#FFFFFF" d="M177.4,27.5c0,0.5,0.4,0.9,0.9,0.9s0.9-0.4,0.9-0.9l0-7.5h0.4v7.5c0,0.5,0.4,0.9,0.9,0.9
			c0.5,0,0.9-0.4,0.9-0.9v-13h0.4v4.8c0,1,1.3,1,1.2,0v-4.9c0-1.1-0.6-2.1-1.9-2.1h-3.6c-1.1,0-1.8,0.9-1.8,2.1v4.9c0,1,1.3,1,1.3,0
			v-4.8h0.5L177.4,27.5L177.4,27.5z"/>
	</g>
</g>
</svg>
