<?xml version="1.0" encoding="utf-8"?>
<!-- Generator: Adobe Illustrator 18.0.0, SVG Export Plug-In . SVG Version: 6.00 Build 0)  -->
<!DOCTYPE svg PUBLIC "-//W3C//DTD SVG 1.1//EN" "http://www.w3.org/Graphics/SVG/1.1/DTD/svg11.dtd">
<svg version="1.1" id="Layer_1" xmlns="http://www.w3.org/2000/svg" xmlns:xlink="http://www.w3.org/1999/xlink" x="0px" y="0px"
	 viewBox="114.7 16.5 29.3 30.8" enable-background="new 114.7 16.5 29.3 30.8" xml:space="preserve">
<g>
	<path fill="#FFFFFF" d="M133.5,32c0.4,3.1-2.2,5.6-5.2,5.2c-2.1-0.3-3.8-1.9-4-4c-0.4-3.1,2.2-5.6,5.2-5.2
		C131.6,28.3,133.3,29.9,133.5,32z"/>
	<g>
		<path fill="#FFFFFF" d="M114.7,32.6c0,0,0,0,0.1-0.1c0.1-0.1,0.2-0.1,0.3-0.2c0.3-0.2,0.6-0.4,1-0.6c0.4-0.2,0.9-0.4,1.5-0.5
			c0.5-0.1,1.1-0.2,1.7-0.2c0.6,0,1.2,0.1,1.7,0.2c0.5,0.1,1,0.3,1.5,0.5c0.4,0.2,0.8,0.4,1,0.6c0.1,0.1,0.2,0.2,0.3,0.2
			c0.1,0.1,0.1,0.1,0.1,0.1s0,0-0.1,0.1c-0.1,0.1-0.2,0.1-0.3,0.2c-0.3,0.2-0.6,0.4-1,0.6c-0.4,0.2-0.9,0.4-1.5,0.5
			c-0.5,0.1-1.1,0.2-1.7,0.2c-0.6,0-1.2-0.1-1.7-0.2c-0.5-0.1-1-0.3-1.5-0.5c-0.4-0.2-0.8-0.4-1-0.6c-0.1-0.1-0.2-0.2-0.3-0.2
			C114.8,32.7,114.7,32.6,114.7,32.6z"/>
		<path fill="#FFFFFF" d="M133.9,32.6c0,0,0,0,0.1-0.1c0.1-0.1,0.2-0.1,0.3-0.2c0.3-0.2,0.6-0.4,1-0.6c0.4-0.2,0.9-0.4,1.5-0.5
			c0.5-0.1,1.1-0.2,1.7-0.2c0.6,0,1.2,0.1,1.7,0.2c0.5,0.1,1,0.3,1.5,0.5c0.4,0.2,0.8,0.4,1,0.6c0.1,0.1,0.2,0.2,0.3,0.2
			c0.1,0.1,0.1,0.1,0.1,0.1s0,0-0.1,0.1c-0.1,0.1-0.2,0.1-0.3,0.2c-0.3,0.2-0.6,0.4-1,0.6c-0.4,0.2-0.9,0.4-1.5,0.5
			c-0.5,0.1-1.1,0.2-1.7,0.2c-0.6,0-1.2-0.1-1.7-0.2c-0.5-0.1-1-0.3-1.5-0.5c-0.4-0.2-0.8-0.4-1-0.6c-0.1-0.1-0.2-0.2-0.3-0.2
			C133.9,32.7,133.9,32.6,133.9,32.6z"/>
	</g>
	<g>
		<path fill="#FFFFFF" d="M128.9,46.8c0,0,0,0-0.1-0.1c-0.1-0.1-0.1-0.2-0.2-0.3c-0.2-0.3-0.4-0.6-0.6-1c-0.2-0.4-0.4-0.9-0.5-1.5
			c-0.1-0.5-0.2-1.1-0.2-1.7c0-0.6,0.1-1.2,0.2-1.7c0.1-0.5,0.3-1,0.5-1.5c0.2-0.4,0.4-0.8,0.6-1c0.1-0.1,0.2-0.2,0.2-0.3
			c0.1-0.1,0.1-0.1,0.1-0.1s0,0,0.1,0.1c0.1,0.1,0.1,0.2,0.2,0.3c0.2,0.3,0.4,0.6,0.6,1c0.2,0.4,0.4,0.9,0.5,1.5
			c0.1,0.5,0.2,1.1,0.2,1.7c0,0.6-0.1,1.2-0.2,1.7c-0.1,0.5-0.3,1-0.5,1.5c-0.2,0.4-0.4,0.8-0.6,1c-0.1,0.1-0.2,0.2-0.2,0.3
			C129,46.8,128.9,46.8,128.9,46.8z"/>
		<path fill="#FFFFFF" d="M128.9,27.7c0,0,0,0-0.1-0.1c-0.1-0.1-0.1-0.2-0.2-0.3c-0.2-0.3-0.4-0.6-0.6-1c-0.2-0.4-0.4-0.9-0.5-1.5
			c-0.1-0.5-0.2-1.1-0.2-1.7c0-0.6,0.1-1.2,0.2-1.7c0.1-0.5,0.3-1,0.5-1.5c0.2-0.4,0.4-0.8,0.6-1c0.1-0.1,0.2-0.2,0.2-0.3
			c0.1-0.1,0.1-0.1,0.1-0.1s0,0,0.1,0.1c0.1,0.1,0.1,0.2,0.2,0.3c0.2,0.3,0.4,0.6,0.6,1c0.2,0.4,0.4,0.9,0.5,1.5
			c0.1,0.5,0.2,1.1,0.2,1.7c0,0.6-0.1,1.2-0.2,1.7c-0.1,0.5-0.3,1-0.5,1.5c-0.2,0.4-0.4,0.8-0.6,1c-0.1,0.1-0.2,0.2-0.2,0.3
			C129,27.6,128.9,27.7,128.9,27.7z"/>
	</g>
	<g>
		<path fill="#FFFFFF" d="M118.9,42.6c0,0,0-0.1,0-0.1c0-0.1,0-0.2,0-0.4c0-0.3,0.1-0.7,0.3-1.2c0.2-0.4,0.4-0.9,0.7-1.4
			c0.3-0.5,0.7-0.9,1.1-1.3c0.4-0.4,0.9-0.8,1.3-1.1c0.5-0.3,0.9-0.5,1.4-0.7c0.4-0.2,0.9-0.3,1.2-0.3c0.2,0,0.3,0,0.4,0
			c0.1,0,0.1,0,0.1,0s0,0.1,0,0.1c0,0.1,0,0.2,0,0.4c0,0.3-0.1,0.7-0.3,1.2c-0.2,0.4-0.4,0.9-0.7,1.4c-0.3,0.5-0.7,0.9-1.1,1.3
			c-0.4,0.4-0.9,0.8-1.3,1.1c-0.5,0.3-0.9,0.5-1.4,0.7c-0.4,0.2-0.9,0.3-1.2,0.3c-0.2,0-0.3,0-0.4,0
			C118.9,42.6,118.9,42.6,118.9,42.6z"/>
		<path fill="#FFFFFF" d="M132.4,29.1c0,0,0-0.1,0-0.1c0-0.1,0-0.2,0-0.4c0-0.3,0.1-0.7,0.3-1.2c0.2-0.4,0.4-0.9,0.7-1.4
			c0.3-0.5,0.7-0.9,1.1-1.3c0.4-0.4,0.9-0.8,1.3-1.1c0.5-0.3,0.9-0.5,1.4-0.7c0.4-0.2,0.9-0.3,1.2-0.3c0.2,0,0.3,0,0.4,0
			c0.1,0,0.1,0,0.1,0s0,0.1,0,0.1c0,0.1,0,0.2,0,0.4c0,0.3-0.1,0.7-0.3,1.2c-0.2,0.4-0.4,0.9-0.7,1.4c-0.3,0.5-0.7,0.9-1.1,1.3
			c-0.4,0.4-0.9,0.8-1.3,1.1c-0.5,0.3-0.9,0.5-1.4,0.7c-0.4,0.2-0.9,0.3-1.2,0.3c-0.2,0-0.3,0-0.4,0
			C132.5,29.1,132.4,29.1,132.4,29.1z"/>
	</g>
	<g>
		<path fill="#FFFFFF" d="M118.9,22.6c0,0,0.1,0,0.1,0c0.1,0,0.2,0,0.4,0c0.3,0,0.7,0.1,1.2,0.3c0.4,0.2,0.9,0.4,1.4,0.7
			c0.5,0.3,0.9,0.7,1.3,1.1c0.4,0.4,0.8,0.9,1.1,1.3c0.3,0.5,0.5,0.9,0.7,1.4c0.2,0.4,0.3,0.9,0.3,1.2c0,0.2,0,0.3,0,0.4
			c0,0.1,0,0.1,0,0.1c0,0-0.1,0-0.1,0c-0.1,0-0.2,0-0.4,0c-0.3,0-0.7-0.1-1.2-0.3c-0.4-0.2-0.9-0.4-1.4-0.7
			c-0.5-0.3-0.9-0.7-1.3-1.1c-0.4-0.4-0.8-0.9-1.1-1.3c-0.3-0.5-0.5-0.9-0.7-1.4c-0.2-0.4-0.3-0.9-0.3-1.2c0-0.2,0-0.3,0-0.4
			C118.9,22.7,118.9,22.6,118.9,22.6z"/>
		<path fill="#FFFFFF" d="M132.4,36.1c0,0,0.1,0,0.1,0c0.1,0,0.2,0,0.4,0c0.3,0,0.7,0.1,1.2,0.3c0.4,0.2,0.9,0.4,1.4,0.7
			c0.5,0.3,0.9,0.7,1.3,1.1c0.4,0.4,0.8,0.9,1.1,1.3c0.3,0.5,0.5,0.9,0.7,1.4c0.2,0.4,0.3,0.9,0.3,1.2c0,0.2,0,0.3,0,0.4
			c0,0.1,0,0.1,0,0.1s-0.1,0-0.1,0c-0.1,0-0.2,0-0.4,0c-0.3,0-0.7-0.1-1.2-0.3c-0.4-0.2-0.9-0.4-1.4-0.7c-0.5-0.3-0.9-0.7-1.3-1.1
			c-0.4-0.4-0.8-0.9-1.1-1.3c-0.3-0.5-0.5-0.9-0.7-1.4c-0.2-0.4-0.3-0.9-0.3-1.2c0-0.2,0-0.3,0-0.4
			C132.4,36.2,132.4,36.1,132.4,36.1z"/>
	</g>
	<g>
		<g>
			<path fill="#FFFFFF" d="M115.8,27.3c0,0,0,0,0.1,0c0.1,0,0.2-0.1,0.4-0.1c0.3-0.1,0.7-0.1,1.2-0.2c0.5,0,1,0,1.6,0.1
				c0.5,0.1,1.1,0.3,1.6,0.5c0.5,0.2,1,0.5,1.5,0.8c0.5,0.3,0.9,0.7,1.2,1c0.3,0.3,0.6,0.7,0.7,1c0.1,0.1,0.1,0.2,0.2,0.3
				c0,0.1,0.1,0.1,0.1,0.1s0,0-0.1,0c-0.1,0-0.2,0.1-0.4,0.1c-0.3,0.1-0.7,0.1-1.2,0.2c-0.5,0-1,0-1.6-0.1c-0.5-0.1-1.1-0.3-1.6-0.5
				c-0.5-0.2-1-0.5-1.5-0.8c-0.5-0.3-0.9-0.7-1.2-1c-0.3-0.3-0.6-0.7-0.7-1c-0.1-0.1-0.1-0.2-0.2-0.3
				C115.8,27.3,115.8,27.3,115.8,27.3z"/>
			<path fill="#FFFFFF" d="M133.5,34.5c0,0,0,0,0.1,0c0.1,0,0.2-0.1,0.4-0.1c0.3-0.1,0.7-0.1,1.2-0.2c0.5,0,1,0,1.6,0.1
				c0.5,0.1,1.1,0.3,1.6,0.5c0.5,0.2,1,0.5,1.5,0.8c0.5,0.3,0.9,0.7,1.2,1c0.3,0.3,0.6,0.7,0.7,1c0.1,0.1,0.1,0.2,0.2,0.3
				c0,0.1,0.1,0.1,0.1,0.1s0,0-0.1,0c-0.1,0-0.2,0.1-0.4,0.1c-0.3,0.1-0.7,0.1-1.2,0.2c-0.5,0-1,0-1.6-0.1c-0.5-0.1-1.1-0.3-1.6-0.5
				c-0.5-0.2-1-0.5-1.5-0.8c-0.5-0.3-0.9-0.7-1.2-1c-0.3-0.3-0.6-0.7-0.7-1c-0.1-0.1-0.1-0.2-0.2-0.3
				C133.5,34.5,133.5,34.5,133.5,34.5z"/>
		</g>
		<g>
			<path fill="#FFFFFF" d="M123.6,45.8c0,0,0,0,0-0.1c0-0.1-0.1-0.2-0.1-0.4c-0.1-0.3-0.1-0.7-0.2-1.2c0-0.5,0-1,0.1-1.6
				c0.1-0.5,0.3-1.1,0.5-1.6c0.2-0.5,0.5-1,0.8-1.5c0.3-0.5,0.7-0.9,1-1.2c0.3-0.3,0.7-0.6,1-0.7c0.1-0.1,0.2-0.1,0.3-0.2
				c0.1,0,0.1-0.1,0.1-0.1s0,0,0,0.1c0,0.1,0.1,0.2,0.1,0.4c0.1,0.3,0.1,0.7,0.2,1.2c0,0.5,0,1-0.1,1.6c-0.1,0.5-0.3,1.1-0.5,1.6
				c-0.2,0.5-0.5,1-0.8,1.5c-0.3,0.5-0.7,0.9-1,1.2c-0.3,0.3-0.7,0.6-1,0.7c-0.1,0.1-0.2,0.1-0.3,0.2
				C123.6,45.7,123.6,45.8,123.6,45.8z"/>
			<path fill="#FFFFFF" d="M130.8,28c0,0,0,0,0-0.1c0-0.1-0.1-0.2-0.1-0.4c-0.1-0.3-0.1-0.7-0.2-1.2c0-0.5,0-1,0.1-1.6
				c0.1-0.5,0.3-1.1,0.5-1.6c0.2-0.5,0.5-1,0.8-1.5c0.3-0.5,0.7-0.9,1-1.2c0.3-0.3,0.7-0.6,1-0.7c0.1-0.1,0.2-0.1,0.3-0.2
				c0.1,0,0.1-0.1,0.1-0.1s0,0,0,0.1c0,0.1,0.1,0.2,0.1,0.4c0.1,0.3,0.1,0.7,0.2,1.2c0,0.5,0,1-0.1,1.6c-0.1,0.5-0.3,1.1-0.5,1.6
				c-0.2,0.5-0.5,1-0.8,1.5c-0.3,0.5-0.7,0.9-1,1.2c-0.3,0.3-0.7,0.6-1,0.7c-0.1,0.1-0.2,0.1-0.3,0.2C130.8,28,130.8,28,130.8,28z"
				/>
		</g>
		<g>
			<path fill="#FFFFFF" d="M115.9,38.1c0,0,0,0,0.1-0.1c0-0.1,0.1-0.2,0.2-0.3c0.2-0.3,0.4-0.6,0.7-1c0.3-0.4,0.7-0.7,1.2-1
				c0.4-0.3,1-0.6,1.5-0.8c0.5-0.2,1.1-0.4,1.6-0.5c0.5-0.1,1.1-0.1,1.6-0.1c0.5,0,0.9,0.1,1.2,0.2c0.2,0,0.3,0.1,0.4,0.1
				c0.1,0,0.1,0,0.1,0s0,0-0.1,0.1c0,0.1-0.1,0.2-0.2,0.3c-0.2,0.3-0.4,0.6-0.7,1c-0.3,0.4-0.7,0.7-1.2,1c-0.5,0.3-1,0.6-1.5,0.8
				c-0.5,0.2-1.1,0.4-1.6,0.5c-0.5,0.1-1.1,0.1-1.6,0.1c-0.5,0-0.9-0.1-1.2-0.2c-0.2,0-0.3-0.1-0.4-0.1
				C115.9,38.2,115.9,38.1,115.9,38.1z"/>
			<path fill="#FFFFFF" d="M133.5,30.7c0,0,0,0,0.1-0.1c0-0.1,0.1-0.2,0.2-0.3c0.2-0.3,0.4-0.6,0.7-1c0.3-0.4,0.7-0.7,1.2-1
				c0.4-0.3,1-0.6,1.5-0.8c0.5-0.2,1.1-0.4,1.6-0.5c0.5-0.1,1.1-0.1,1.6-0.1c0.5,0,0.9,0.1,1.2,0.2c0.2,0,0.3,0.1,0.4,0.1
				c0.1,0,0.1,0,0.1,0s0,0-0.1,0.1c0,0.1-0.1,0.2-0.2,0.3c-0.2,0.3-0.4,0.6-0.7,1c-0.3,0.4-0.7,0.7-1.2,1c-0.5,0.3-1,0.6-1.5,0.8
				c-0.5,0.2-1.1,0.4-1.6,0.5c-0.5,0.1-1.1,0.1-1.6,0.1c-0.5,0-0.9-0.1-1.2-0.2c-0.2,0-0.3-0.1-0.4-0.1
				C133.5,30.7,133.5,30.7,133.5,30.7z"/>
		</g>
		<g>
			<path fill="#FFFFFF" d="M123.4,19.6c0,0,0,0,0.1,0.1c0.1,0,0.2,0.1,0.3,0.2c0.3,0.2,0.6,0.4,1,0.7c0.4,0.3,0.7,0.7,1,1.2
				c0.3,0.4,0.6,1,0.8,1.5c0.2,0.5,0.4,1.1,0.5,1.6c0.1,0.5,0.1,1.1,0.1,1.6c0,0.5-0.1,0.9-0.2,1.2c0,0.2-0.1,0.3-0.1,0.4
				c0,0.1,0,0.1,0,0.1c0,0,0,0-0.1-0.1c-0.1,0-0.2-0.1-0.3-0.2c-0.3-0.2-0.6-0.4-1-0.7c-0.4-0.3-0.7-0.7-1-1.2
				c-0.3-0.5-0.6-1-0.8-1.5c-0.2-0.5-0.4-1.1-0.5-1.6c-0.1-0.5-0.1-1.1-0.1-1.6c0-0.5,0.1-0.9,0.2-1.2c0-0.2,0.1-0.3,0.1-0.4
				C123.4,19.6,123.4,19.6,123.4,19.6z"/>
			<path fill="#FFFFFF" d="M130.8,37.2c0,0,0,0,0.1,0.1c0.1,0,0.2,0.1,0.3,0.2c0.3,0.2,0.6,0.4,1,0.7c0.4,0.3,0.7,0.7,1,1.2
				c0.3,0.4,0.6,1,0.8,1.5c0.2,0.5,0.4,1.1,0.5,1.6c0.1,0.5,0.1,1.1,0.1,1.6c0,0.5-0.1,0.9-0.2,1.2c0,0.2-0.1,0.3-0.1,0.4
				c0,0.1,0,0.1,0,0.1s0,0-0.1-0.1c-0.1,0-0.2-0.1-0.3-0.2c-0.3-0.2-0.6-0.4-1-0.7c-0.4-0.3-0.7-0.7-1-1.2c-0.3-0.5-0.6-1-0.8-1.5
				c-0.2-0.5-0.4-1.1-0.5-1.6c-0.1-0.5-0.1-1.1-0.1-1.6c0-0.5,0.1-0.9,0.2-1.2c0-0.2,0.1-0.3,0.1-0.4
				C130.8,37.2,130.8,37.2,130.8,37.2z"/>
		</g>
	</g>
</g>
</svg>
