<?xml version="1.0" encoding="utf-8"?>
<!-- Generator: Adobe Illustrator 18.0.0, SVG Export Plug-In . SVG Version: 6.00 Build 0)  -->
<!DOCTYPE svg PUBLIC "-//W3C//DTD SVG 1.1//EN" "http://www.w3.org/Graphics/SVG/1.1/DTD/svg11.dtd">
<svg version="1.1" id="Layer_1" xmlns="http://www.w3.org/2000/svg" xmlns:xlink="http://www.w3.org/1999/xlink" x="0px" y="0px"
	 viewBox="7 2.7 34 32.8" enable-background="new 7 2.7 34 32.8" xml:space="preserve">
<g>
	<path fill="#FFFFFF" d="M20.4,16.2c1-2.4,2.7-4.5,4.7-6c0.1-0.1,0.2-0.3,0.1-0.4c-0.2-1.1-0.4-2.2-0.3-3.3c0-0.3-0.3-0.5-0.6-0.3
		c-0.3,0.2-0.7,0.5-1,0.7c-0.5,0.4-1,0.8-1.4,1.3c-0.4,0.4-0.8,0.9-1.1,1.4c-1.4,1.8-2.2,3.9-2.5,6c0,0.2,0.1,0.4,0.3,0.4
		c0.5,0.1,1,0.3,1.4,0.4C20.1,16.5,20.4,16.4,20.4,16.2z"/>
	<path fill="#FFFFFF" d="M38.1,26.3c-2,0.3-5.3,0.4-8.4-1.8c0,0-0.1-0.1-0.1-0.1c-0.2-0.2-0.2-0.4,0-0.6c2-1.9,3.5-4.3,4.1-7.1
		c0-0.2,0.1-0.4,0.1-0.6c0.6-2.8,2.1-5.3,4.1-7.1c0,0,0,0,0,0c0.2-0.2,0.1-0.6-0.2-0.7c-0.4-0.1-0.8-0.2-1.2-0.2
		c-0.6-0.1-1.3-0.1-1.9-0.1c-0.6,0-1.2,0-1.8,0.1c-5.3,0.7-9.6,4.3-11.3,9.2c-0.1,0.2-0.3,0.3-0.5,0.2c-2-0.9-4.5-1.4-7.4-1
		c-3.1,0.4-3.6,2.8-3.6,3.9c0,0.3,0.2,0.5,0.5,0.4c0.6-0.2,1.6-0.3,2.6,0.2c1.5,0.7,1.9,2.1,2,2.3c0,0,0,0,0,0
		c2.7,6,10.2,8.7,16.3,7.5c0.3-0.1,0.5-0.1,0.6,0.1l1,2.3c0,0,0.5,2.1,3.3,0.8c2.7-1.3,4-4.1,4-6.5C40.2,26.4,39.5,26.1,38.1,26.3z"
		/>
</g>
</svg>
