<?xml version="1.0" encoding="utf-8"?>
<!-- Generator: Adobe Illustrator 18.0.0, SVG Export Plug-In . SVG Version: 6.00 Build 0)  -->
<!DOCTYPE svg PUBLIC "-//W3C//DTD SVG 1.1//EN" "http://www.w3.org/Graphics/SVG/1.1/DTD/svg11.dtd">
<svg version="1.1" id="Layer_1" xmlns="http://www.w3.org/2000/svg" xmlns:xlink="http://www.w3.org/1999/xlink" x="0px" y="0px"
	 viewBox="137.8 -35.5 30 29.3" enable-background="new 137.8 -35.5 30 29.3" xml:space="preserve">
<g>
	<path fill="#FFFFFF" d="M140.6-14.6L140.6-14.6l2.9-2.8c0,0,0,0,0,0l0.1-0.1c0.3-0.2,0.6-0.2,0.9,0c0.3,0.2,0.5,0.6,0.4,0.9
		c-0.1,0.2-0.2,0.3-0.2,0.4l-0.1,0.1c0,0,0,0,0,0l-1.2,1.1l0.2,0.2l5.2-5c0.3-0.3,0.8-0.3,1.2,0c0.3,0.3,0.3,0.8,0,1.2l-4,3.9
		l0.2,0.2l4.7-4.5c0.3-0.3,0.8-0.3,1.1,0c0.3,0.3,0.3,0.8,0,1.2l-4.7,4.5l0.2,0.2l4-3.9c0.3-0.3,0.8-0.3,1.2,0
		c0.3,0.3,0.3,0.8,0,1.2l-4.6,4.5l0.2,0.2l2-1.9c0.3-0.3,0.8-0.3,1.2,0c0.3,0.3,0.3,0.8-0.2,1.3l-4.4,4.2c-1.5,1.5-4.5,1.4-6.3-0.5
		C138.7-9.9,138.8-12.8,140.6-14.6z"/>
	<path fill="#FFFFFF" d="M147.5-33.4L147.5-33.4l2.8,2.9c0,0,0,0,0,0l0.1,0.1c0.2,0.3,0.2,0.6,0,0.9c-0.2,0.3-0.6,0.5-0.9,0.4
		c-0.2-0.1-0.3-0.2-0.4-0.2l-0.1-0.1c0,0,0,0,0,0l-1.1-1.2l-0.2,0.2l5,5.2c0.3,0.3,0.3,0.8,0,1.2c-0.3,0.3-0.8,0.3-1.2,0l-3.9-4
		l-0.2,0.2l4.5,4.7c0.3,0.3,0.3,0.8,0,1.1c-0.3,0.3-0.8,0.3-1.2,0l-4.5-4.7l-0.2,0.2l3.9,4c0.3,0.3,0.3,0.8,0,1.2
		c-0.3,0.3-0.8,0.3-1.2,0l-4.5-4.6l-0.2,0.2l1.9,2c0.3,0.3,0.3,0.8,0,1.2c-0.3,0.3-0.8,0.3-1.3-0.2l-4.2-4.4
		c-1.5-1.5-1.4-4.5,0.5-6.3C142.7-35.3,145.7-35.3,147.5-33.4z"/>
	<path fill="#FFFFFF" d="M140.6-14.6L140.6-14.6l2.9-2.8c0,0,0,0,0,0l0.1-0.1c0.3-0.2,0.6-0.2,0.9,0c0.3,0.2,0.5,0.6,0.4,0.9
		c-0.1,0.2-0.2,0.3-0.2,0.4l-0.1,0.1c0,0,0,0,0,0l-1.2,1.1l0.2,0.2l5.2-5c0.3-0.3,0.8-0.3,1.2,0c0.3,0.3,0.3,0.8,0,1.2l-4,3.9
		l0.2,0.2l4.7-4.5c0.3-0.3,0.8-0.3,1.1,0c0.3,0.3,0.3,0.8,0,1.2l-4.7,4.5l0.2,0.2l4-3.9c0.3-0.3,0.8-0.3,1.2,0
		c0.3,0.3,0.3,0.8,0,1.2l-4.6,4.5l0.2,0.2l2-1.9c0.3-0.3,0.8-0.3,1.2,0c0.3,0.3,0.3,0.8-0.2,1.3l-4.4,4.2c-1.5,1.5-4.5,1.4-6.3-0.5
		C138.7-9.9,138.8-12.8,140.6-14.6z"/>
	<path fill="#FFFFFF" d="M147.5-33.4L147.5-33.4l2.8,2.9c0,0,0,0,0,0l0.1,0.1c0.2,0.3,0.2,0.6,0,0.9c-0.2,0.3-0.6,0.5-0.9,0.4
		c-0.2-0.1-0.3-0.2-0.4-0.2l-0.1-0.1c0,0,0,0,0,0l-1.1-1.2l-0.2,0.2l5,5.2c0.3,0.3,0.3,0.8,0,1.2c-0.3,0.3-0.8,0.3-1.2,0l-3.9-4
		l-0.2,0.2l4.5,4.7c0.3,0.3,0.3,0.8,0,1.1c-0.3,0.3-0.8,0.3-1.2,0l-4.5-4.7l-0.2,0.2l3.9,4c0.3,0.3,0.3,0.8,0,1.2
		c-0.3,0.3-0.8,0.3-1.2,0l-4.5-4.6l-0.2,0.2l1.9,2c0.3,0.3,0.3,0.8,0,1.2c-0.3,0.3-0.8,0.3-1.3-0.2l-4.2-4.4
		c-1.5-1.5-1.4-4.5,0.5-6.3C142.7-35.3,145.7-35.3,147.5-33.4z"/>
	<path fill="#FFFFFF" d="M166.3-14.6L166.3-14.6l-2.9-2.8c0,0,0,0,0,0l-0.1-0.1c-0.3-0.2-0.6-0.2-0.9,0c-0.3,0.2-0.5,0.6-0.4,0.9
		c0.1,0.2,0.2,0.3,0.2,0.4l0.1,0.1c0,0,0,0,0,0l1.2,1.1l-0.2,0.2l-5.2-5c-0.3-0.3-0.8-0.3-1.2,0c-0.3,0.3-0.3,0.8,0,1.2l4,3.9
		l-0.2,0.2L156-19c-0.3-0.3-0.8-0.3-1.1,0c-0.3,0.3-0.3,0.8,0,1.2l4.7,4.5l-0.2,0.2l-4-3.9c-0.3-0.3-0.8-0.3-1.2,0
		c-0.3,0.3-0.3,0.8,0,1.2l4.6,4.5l-0.2,0.2l-2-1.9c-0.3-0.3-0.8-0.3-1.2,0c-0.3,0.3-0.3,0.8,0.2,1.3l4.4,4.2
		c1.5,1.5,4.5,1.4,6.3-0.5C168.2-9.9,168.1-12.8,166.3-14.6z"/>
	<path fill="#FFFFFF" d="M159.4-33.4L159.4-33.4l-2.8,2.9c0,0,0,0,0,0l-0.1,0.1c-0.2,0.3-0.2,0.6,0,0.9c0.2,0.3,0.6,0.5,0.9,0.4
		c0.2-0.1,0.3-0.2,0.4-0.2l0.1-0.1c0,0,0,0,0,0l1.1-1.2l0.2,0.2l-5,5.2c-0.3,0.3-0.3,0.8,0,1.2c0.3,0.3,0.8,0.3,1.2,0l3.9-4l0.2,0.2
		l-4.5,4.7c-0.3,0.3-0.3,0.8,0,1.1c0.3,0.3,0.8,0.3,1.2,0l4.5-4.7l0.2,0.2l-3.9,4c-0.3,0.3-0.3,0.8,0,1.2c0.3,0.3,0.8,0.3,1.2,0
		l4.5-4.6l0.2,0.2l-1.9,2c-0.3,0.3-0.3,0.8,0,1.2c0.3,0.3,0.8,0.3,1.3-0.2l4.2-4.4c1.5-1.5,1.4-4.5-0.5-6.3
		C164.2-35.3,161.2-35.2,159.4-33.4z"/>
</g>
</svg>
