<?xml version="1.0" encoding="utf-8"?>
<!-- Generator: Adobe Illustrator 18.0.0, SVG Export Plug-In . SVG Version: 6.00 Build 0)  -->
<!DOCTYPE svg PUBLIC "-//W3C//DTD SVG 1.1//EN" "http://www.w3.org/Graphics/SVG/1.1/DTD/svg11.dtd">
<svg version="1.1" id="Layer_1" xmlns="http://www.w3.org/2000/svg" xmlns:xlink="http://www.w3.org/1999/xlink" x="0px" y="0px"
	 viewBox="91 16.7 16 30.3" enable-background="new 91 16.7 16 30.3" xml:space="preserve">
<g>
	<path fill="#FFFFFF" d="M104.1,45.8h-7.8c-0.6,0-1.2-0.5-1.2-1.2V29.9c0-0.6,0.5-1.2,1.2-1.2c0,0,3.2,0.8,4.2,0.8
		c1,0,3.6-0.8,3.6-0.8c0.6,0,1.2,0.5,1.2,1.2v14.7C105.2,45.3,104.7,45.8,104.1,45.8z"/>
	<path fill="#FFFFFF" d="M100.3,17.5c-1.4,0-2.6,7.2-2.6,8.6c0,1.1,0.7,2,1.6,2.4c-0.3-0.3-0.5-0.7-0.5-1.1c0-0.8,0.7-4.8,1.5-4.8
		s1.5,4,1.5,4.8c0,0.5-0.3,0.9-0.6,1.2c1.1-0.3,1.9-1.3,1.9-2.5C102.9,24.7,101.7,17.5,100.3,17.5z"/>
</g>
</svg>
