<?xml version="1.0" encoding="utf-8"?>
<!-- Generator: Adobe Illustrator 18.0.0, SVG Export Plug-In . SVG Version: 6.00 Build 0)  -->
<!DOCTYPE svg PUBLIC "-//W3C//DTD SVG 1.1//EN" "http://www.w3.org/Graphics/SVG/1.1/DTD/svg11.dtd">
<svg version="1.1" id="Artwork" xmlns="http://www.w3.org/2000/svg" xmlns:xlink="http://www.w3.org/1999/xlink" x="0px" y="0px"
	 viewBox="0 0 1280 2000" enable-background="new 0 0 1280 2000" xml:space="preserve">
<g>
	<path d="M638.9,1552.1l-1.1-1.1c-0.5-0.5-1.2-0.5-1.7,0l-7,7v-6c0-0.7-0.5-1.2-1.2-1.2h-1.6c-0.7,0-1.2,0.5-1.2,1.2v11.6
		c0,0.3,0.1,0.6,0.4,0.8c0.2,0.2,0.5,0.4,0.8,0.4h11.6c0.7,0,1.2-0.5,1.2-1.2v-1.6c0-0.7-0.5-1.2-1.2-1.2h-6l7-7
		C639.3,1553.3,639.3,1552.5,638.9,1552.1z"/>
	<path d="M654.6,1535c-0.2-0.2-0.5-0.4-0.8-0.4h-11.6c-0.7,0-1.2,0.5-1.2,1.2v1.6c0,0.7,0.5,1.2,1.2,1.2h6l-7,7
		c-0.5,0.5-0.5,1.2,0,1.7l1.1,1.1c0.5,0.5,1.2,0.5,1.7,0l7-7v6c0,0.7,0.5,1.2,1.2,1.2h1.6c0.7,0,1.2-0.5,1.2-1.2v-11.6
		C655,1535.6,654.9,1535.3,654.6,1535z"/>
</g>
</svg>
