<?xml version="1.0" encoding="utf-8"?>
<!-- Generator: Adobe Illustrator 18.0.0, SVG Export Plug-In . SVG Version: 6.00 Build 0)  -->
<!DOCTYPE svg PUBLIC "-//W3C//DTD SVG 1.1//EN" "http://www.w3.org/Graphics/SVG/1.1/DTD/svg11.dtd">
<svg version="1.1" id="Capa_1" xmlns="http://www.w3.org/2000/svg" xmlns:xlink="http://www.w3.org/1999/xlink" x="0px" y="0px"
	 viewBox="123 247 378 311" enable-background="new 123 247 378 311" xml:space="preserve">
<path fill="#5EA9DD" d="M459,327.1v11.5c0,99.5-76.5,214.2-214.2,214.2c-42.1,0-80.3-11.5-114.8-34.4c7.7,0,11.5,0,19.1,0
	c34.4,0,68.8-11.5,91.8-30.6c-34.4,0-61.2-23-68.9-53.5c3.8,0,7.6,0,15.3,0c3.8,0,11.5,0,15.3,0c-34.4-7.6-61.2-38.3-61.2-76.5l0,0
	c11.5,7.6,22.9,7.6,34.4,11.5c-19.1-15.3-34.4-38.3-34.4-61.2c0-15.3,3.8-26.8,11.5-38.3c38.3,45.9,91.8,76.5,156.8,80.3
	c0-11.5-3.8-15.3-3.8-23c0-42.1,34.4-76.5,76.5-76.5c23,0,42.1,7.6,53.5,22.9c15.3-3.8,34.4-11.5,49.7-19.1
	c-3.8,19.1-19.1,30.6-34.4,42.1c15.3,0,30.6-7.6,42.1-11.5C485.8,304.2,474.3,315.7,459,327.1z"/>
</svg>
