<?xml version="1.0" encoding="utf-8"?>
<!-- Generator: Adobe Illustrator 18.0.0, SVG Export Plug-In . SVG Version: 6.00 Build 0)  -->
<!DOCTYPE svg PUBLIC "-//W3C//DTD SVG 1.1//EN" "http://www.w3.org/Graphics/SVG/1.1/DTD/svg11.dtd">
<svg version="1.1" id="Capa_1" xmlns="http://www.w3.org/2000/svg" xmlns:xlink="http://www.w3.org/1999/xlink" x="0px" y="0px"
	 viewBox="0 0 16 16" enable-background="new 0 0 16 16" xml:space="preserve">
<path fill="none" stroke="#46008C" stroke-width="0.5" stroke-miterlimit="10" d="M13,0H3C1.3,0,0,1.3,0,3v10c0,1.7,1.3,3,3,3h10
	c1.7,0,3-1.3,3-3V3C16,1.3,14.7,0,13,0z M12,6.2l0,0.3c0,2.6-2,5.6-5.6,5.6c-1.1,0-2.1-0.3-3-0.9c0.2,0,0.3,0,0.5,0
	c0.9,0,1.8-0.3,2.4-0.8c-0.9,0-1.6-0.6-1.8-1.4c0.1,0,0.2,0,0.4,0C5,9,5.2,9,5.3,9C4.4,8.8,3.7,8,3.7,7v0C4,7.2,4.3,7.2,4.6,7.3
	c-0.5-0.4-0.9-1-0.9-1.6c0-0.4,0.1-0.7,0.3-1c1,1.2,2.4,2,4.1,2.1C8.1,6.5,8,6.4,8,6.2c0-1.1,0.9-2,2-2c0.6,0,1.1,0.2,1.4,0.6
	c0.4-0.1,0.9-0.3,1.3-0.5c-0.1,0.5-0.5,0.8-0.9,1.1c0.4,0,0.8-0.2,1.1-0.3C12.7,5.6,12.4,5.9,12,6.2z"/>
</svg>
