<svg xmlns="http://www.w3.org/2000/svg" xmlns:xlink="http://www.w3.org/1999/xlink" version="1.1" id="Your_Icon" x="0px" y="0px" width="100px" height="100px" viewBox="0 0 100 100" enable-background="new 0 0 100 100" xml:space="preserve">
<path fill="#000000" d="M30.35,50.74l10.117,10.117l8.412-8.411c-5.814-5.814-11.629-11.628-17.443-17.443  c-0.773-0.773-1.522-1.536-2.21-2.379c-0.449-0.487-0.889-1-1.301-1.558c-0.778-1.052-1.354-2.072-1.775-3.172  c0,0-0.014,6.984,0.021,10.472C26.217,43.044,26.891,47.282,30.35,50.74z M29.278,30.065c0.269,0.364,0.559,0.708,0.854,1.044  c2.866-2.991,7.068-4.468,11.209-4.218c2.298,0.139,4.496,0.98,6.44,2.178c0.505,0.311,0.968,0.685,1.427,1.056  c0.637,0.513,0.628,1.067,1.328,0.397c0.995-0.953,2.177-1.685,3.397-2.303c4.33-2.19,9.569-1.645,13.622,0.85  c0.903,0.557,1.715,1.242,2.444,2.006c0.387-0.425,0.765-0.865,1.11-1.333c1.373-1.856,2.016-3.528,2.291-5.961  c0.105-0.92,0.133-1.903,0.103-2.837c-0.769-3.298-2.468-6.157-5.461-8.369c-3.907-2.887-9.172-3.208-13.585-1.418  c-1.082,0.439-2.071,1.078-3.007,1.77c-0.484,0.358-0.919,0.776-1.353,1.191c0.032-0.032-1.261-1.115-1.354-1.191  c-1.954-1.576-4.381-2.453-6.842-2.802c-4.899-0.693-9.723,1.57-12.771,5.346c-0.94,1.168-1.629,2.509-2.109,3.923  c-0.169,1.376-0.217,3.135-0.038,4.71C27.264,26.537,27.906,28.208,29.278,30.065z M77.824,81.392  c-4.803-4.804-13.312-13.312-18.114-18.114l-8.413,8.411l18.195,18.196L77.824,81.392z M30.589,90c0,0,34.758-34.758,38.175-38.175  c0.942-0.942,1.854-1.859,2.653-2.939c1.372-1.858,2.128-4.1,2.448-6.365c0.193-1.367,0.438-15.134,0.438-15.134  c-0.426,1.17-1.019,2.247-1.839,3.355c-0.432,0.585-0.895,1.122-1.366,1.63c0.001,0.001,0.002,0.002,0.003,0.004  c-1.316,1.717-2.941,3.228-4.495,4.782C61.104,42.66,27.354,76.41,22.176,81.589L30.589,90z"/>
</svg>