<svg xmlns="http://www.w3.org/2000/svg" xmlns:xlink="http://www.w3.org/1999/xlink" version="1.1" id="Your_Icon" x="0px" y="0px" width="100px" height="100px" viewBox="0 0 100 100" enable-background="new 0 0 100 100" xml:space="preserve">
<g>
	<path fill="#000000" d="M83.54,66.111c0.862-0.862,1.337-2.011,1.337-3.23c0-1.221-0.475-2.366-1.338-3.229L51.144,27.256   L35.922,42.477c-1.356,1.355-3.159,2.102-5.077,2.102c-1.918,0-3.712-0.737-5.052-2.077L24.55,41.26   c-2.788-2.788-2.779-7.334,0.021-10.135L48.032,7.661c-5.298-4.836-12.109-7.492-19.329-7.492c-7.67,0-14.882,2.988-20.307,8.412   C-2.799,19.777-2.799,37.996,8.398,49.193l7.884,7.888l7.024-7.026c1.356-1.356,3.16-2.103,5.078-2.103s3.722,0.747,5.078,2.103   c1.408,1.407,2.106,3.26,2.098,5.109c1.231-0.917,2.712-1.42,4.275-1.42c1.918,0,3.722,0.747,5.077,2.104   c1.356,1.355,2.104,3.158,2.104,5.076c0,0.813-0.143,1.602-0.4,2.347c0.334-0.047,0.671-0.078,1.015-0.078   c1.917,0,3.72,0.747,5.077,2.103c2.429,2.431,2.746,6.184,0.959,8.962c0.05-0.002,0.098-0.008,0.147-0.008   c1.919,0,3.722,0.747,5.079,2.104c2.067,2.069,2.603,5.099,1.613,7.666l0.752,0.753c0.861,0.862,2.007,1.337,3.228,1.337   s2.367-0.475,3.229-1.337c1.78-1.781,1.78-4.678,0-6.459L48.934,59.533c-0.508-0.511-0.51-1.336-0.002-1.847l0.313-0.314   c0.245-0.246,0.577-0.386,0.924-0.386c0.001,0,0.001,0,0.002,0c0.347,0,0.678,0.14,0.924,0.384l18.783,18.783   c0.862,0.862,2.009,1.338,3.229,1.338c1.219,0,2.366-0.476,3.23-1.338c0.862-0.862,1.337-2.011,1.337-3.23   c0-1.221-0.475-2.368-1.338-3.23L57.555,50.91c-0.245-0.245-0.382-0.578-0.382-0.925s0.138-0.68,0.384-0.924l0.314-0.313   c0.508-0.509,1.335-0.508,1.846,0.001L77.08,66.111c0.862,0.862,2.01,1.338,3.229,1.338S82.676,66.974,83.54,66.111z"/>
	<path fill="#000000" d="M58.546,86.855l-6.047,6.047c0.595,0.277,1.243,0.437,1.919,0.437c1.222,0,2.368-0.474,3.229-1.336   C59.039,90.61,59.328,88.544,58.546,86.855z"/>
</g>
<g>
	<path fill="#000000" d="M20.479,67.605c0.745,0,1.454-0.195,2.096-0.532c0.41-0.213,0.797-0.469,1.133-0.806l0.878-0.878   l7.028-7.028c1.78-1.779,1.78-4.678-0.001-6.459c-0.863-0.862-2.01-1.337-3.23-1.337s-2.367,0.474-3.229,1.337l-7.024,7.026   l-0.88,0.88c-0.335,0.334-0.593,0.722-0.806,1.13c-0.335,0.644-0.532,1.354-0.532,2.099c0,1.221,0.476,2.368,1.338,3.23   S19.258,67.605,20.479,67.605z"/>
	<path fill="#000000" d="M57.046,78.2c-0.864-0.86-2.012-1.335-3.232-1.335c-0.144,0-0.282,0.027-0.424,0.041   c-1.058,0.098-2.045,0.533-2.805,1.296l-0.139,0.14l-6.457,6.457l-0.874,0.874c-0.342,0.34-0.598,0.731-0.808,1.14   c-0.887,1.72-0.632,3.88,0.808,5.319c0.862,0.862,2.009,1.338,3.23,1.338c0.742,0,1.448-0.195,2.088-0.526   c0.413-0.215,0.803-0.473,1.14-0.812l0.873-0.872l6.459-6.459l0.141-0.139c0.782-0.782,1.198-1.784,1.293-2.807   C58.46,80.547,58.043,79.2,57.046,78.2z"/>
	<path fill="#000000" d="M37.723,84.85c0.743,0,1.45-0.195,2.092-0.53c0.411-0.213,0.802-0.471,1.139-0.81l0.873-0.872l6.458-6.459   l2.189-2.188l0.386-0.387c1.78-1.78,1.78-4.678,0-6.462c-0.862-0.86-2.01-1.335-3.229-1.335s-2.367,0.475-3.229,1.337l-0.387,0.388   l-2.188,2.188l-6.457,6.455l-0.876,0.876c-0.34,0.34-0.596,0.731-0.806,1.138c-0.888,1.722-0.633,3.884,0.807,5.323   C35.356,84.374,36.502,84.85,37.723,84.85z"/>
	<path fill="#000000" d="M29.102,76.228c0.744,0,1.452-0.197,2.093-0.53c0.411-0.213,0.8-0.471,1.136-0.808l0.876-0.876l9.856-9.857   c0.864-0.863,1.339-2.011,1.339-3.231c0-1.22-0.475-2.366-1.339-3.229c-0.862-0.864-2.008-1.339-3.229-1.339   s-2.367,0.475-3.229,1.339l-9.856,9.856l-0.877,0.876c-0.34,0.34-0.596,0.729-0.806,1.136c-0.89,1.722-0.636,3.884,0.806,5.325   C26.733,75.752,27.88,76.228,29.102,76.228z"/>
	<path fill="#000000" d="M100,28.718c0-7.671-2.987-14.883-8.411-20.307C86.166,2.987,78.954,0,71.284,0   c-7.552,0-14.653,2.899-20.047,8.164c-0.086,0.083-0.175,0.162-0.26,0.247l-2.351,2.351L26.419,32.973   c-1.781,1.781-1.791,4.67-0.021,6.438l1.244,1.243c0.858,0.859,1.965,1.312,3.204,1.312c1.22,0,2.366-0.476,3.229-1.338   l15.221-15.221l1.03-1.03c0.255-0.254,0.589-0.382,0.924-0.382c0.139,0,0.276,0.035,0.41,0.079   c0.187,0.062,0.364,0.155,0.513,0.303l32.049,32.014l7.368-7.369C97.013,43.6,100,36.389,100,28.718z"/>
</g>
</svg>