<?xml version="1.0" encoding="utf-8"?>
<!-- Generator: Adobe Illustrator 18.0.0, SVG Export Plug-In . SVG Version: 6.00 Build 0)  -->
<!DOCTYPE svg PUBLIC "-//W3C//DTD SVG 1.1//EN" "http://www.w3.org/Graphics/SVG/1.1/DTD/svg11.dtd">
<svg version="1.1" id="Layer_1" xmlns="http://www.w3.org/2000/svg" xmlns:xlink="http://www.w3.org/1999/xlink" x="0px" y="0px"
	 viewBox="225 -0.2 98 94.7" enable-background="new 225 -0.2 98 94.7" xml:space="preserve">
<path fill="#010101" d="M37.7,34.5c3.4-8,8.8-14.8,15.5-19.9c0.4-0.3,0.6-0.8,0.5-1.3c-0.8-3.6-1.2-7.2-1.1-10.9c0-1-1.1-1.7-2-1.1
	c-1.2,0.7-2.3,1.5-3.4,2.4C45.5,5,43.9,6.4,42.4,8c-1.4,1.4-2.6,2.9-3.8,4.5c-4.5,6-7.2,12.8-8.4,19.9c-0.1,0.7,0.3,1.3,1,1.5
	c1.6,0.4,3.2,0.9,4.7,1.4C36.7,35.5,37.4,35.2,37.7,34.5z"/>
<path fill="#010101" d="M96,67.8c-6.7,1-17.5,1.4-27.6-6.1c-0.1-0.1-0.2-0.2-0.3-0.3c-0.7-0.5-0.7-1.5-0.1-2
	c6.6-6.2,11.4-14.3,13.4-23.5c0.1-0.6,0.2-1.2,0.4-1.9c2-9.2,6.8-17.4,13.4-23.6c0,0,0,0,0,0c0.8-0.7,0.5-2-0.6-2.3
	c-1.3-0.3-2.7-0.6-4-0.8C88.4,7.1,86.3,7,84.1,7c-2,0-3.9,0.1-5.9,0.4C60.8,9.6,46.5,21.7,41,37.9c-0.3,0.7-1.1,1.1-1.8,0.8
	c-6.7-3.1-14.7-4.7-24.4-3.4C4.7,36.6,3,44.4,2.8,48.1c-0.1,0.9,0.8,1.6,1.7,1.4c1.9-0.5,5.2-1,8.7,0.7c4.9,2.3,6.3,7.1,6.5,7.6
	c0,0,0,0.1,0,0.1c3.4,20.6,27.9,27.9,41.1,27.9c7.6,0,11.1-1.8,12.6-3.2c0.7-0.6,1.7-0.3,2.1,0.5l3.3,7.4c0,0,1.8,7,10.8,2.6
	c8.7-4.2,13.2-13.6,13.1-21.4C102.7,68.3,100.6,67.1,96,67.8z"/>
<path d="M197.4,0.1"/>
<path fill="none" stroke="#000000" stroke-miterlimit="10" d="M197.4,3.3"/>
<path d="M198.9,7.6v82.9c0,0.8-0.7,1.5-1.5,1.5H134c-0.4,0-0.8-0.2-1.1-0.4l0,0c-0.9-0.9-0.3-2.6,1.1-2.6h60.4
	c0.8,0,1.5-0.7,1.5-1.5V1.6c0-0.8-0.7-1.5-1.5-1.5h-65.6c-0.8,0-1.5,0.7-1.5,1.5v86.8c0,0.4,0.2,0.8,0.4,1.1l5.1,5.1
	c0.3,0.3,0.7,0.4,1.1,0.4h66.4c0.8,0,1.5-0.7,1.5-1.5V7.6c0-0.8-0.7-1.5-1.5-1.5l0,0C199.6,6.1,198.9,6.8,198.9,7.6z M148.8,28.7
	h8.1c0.8,0,1.5-0.7,1.5-1.5v-8c0-0.8,0.7-1.5,1.5-1.5h6.1c0.8,0,1.5,0.7,1.5,1.5v8c0,0.8,0.7,1.5,1.5,1.5h8.1c0.8,0,1.5,0.7,1.5,1.5
	v6.1c0,0.8-0.7,1.5-1.5,1.5H169c-0.8,0-1.5,0.7-1.5,1.5v25.1c0,0.8-0.7,1.5-1.5,1.5H160c-0.8,0-1.5-0.7-1.5-1.5V39.3
	c0-0.8-0.7-1.5-1.5-1.5h-8.1c-0.8,0-1.5-0.7-1.5-1.5v-6.1C147.3,29.4,148,28.7,148.8,28.7z"/>
<path d="M288.1,95.5h-27.2c-2.3,0-4.1-1.8-4.1-4.1V40.2c0-2.3,1.8-4.1,4.1-4.1c0,0,11.3,2.7,14.8,2.7c3.4,0,12.4-2.7,12.4-2.7
	c2.3,0,4.1,1.8,4.1,4.1v51.2C292.2,93.6,290.3,95.5,288.1,95.5z"/>
<path d="M283.5,25.8c0,7.1-3.6,9.9-7.4,9.9s-8.2-2.8-8.2-9.9s4.2-22.3,8-22.3S283.5,18.7,283.5,25.8z"/>
</svg>
