<?xml version="1.0" encoding="utf-8"?>
<!-- Generator: Adobe Illustrator 18.0.0, SVG Export Plug-In . SVG Version: 6.00 Build 0)  -->
<!DOCTYPE svg PUBLIC "-//W3C//DTD SVG 1.1//EN" "http://www.w3.org/Graphics/SVG/1.1/DTD/svg11.dtd">
<svg version="1.1" id="Layer_1" xmlns="http://www.w3.org/2000/svg" xmlns:xlink="http://www.w3.org/1999/xlink" x="0px" y="0px"
	 viewBox="114.7 16.5 29.3 30.8" enable-background="new 114.7 16.5 29.3 30.8" xml:space="preserve">
<g>
	<path fill="#FFFFFF" d="M20.4,16.2c1-2.4,2.7-4.5,4.7-6c0.1-0.1,0.2-0.3,0.1-0.4c-0.2-1.1-0.4-2.2-0.3-3.3c0-0.3-0.3-0.5-0.6-0.3
		c-0.3,0.2-0.7,0.5-1,0.7c-0.5,0.4-1,0.8-1.4,1.3c-0.4,0.4-0.8,0.9-1.1,1.4c-1.4,1.8-2.2,3.9-2.5,6c0,0.2,0.1,0.4,0.3,0.4
		c0.5,0.1,1,0.3,1.4,0.4C20.1,16.5,20.4,16.4,20.4,16.2z"/>
	<path fill="#FFFFFF" d="M38.1,26.3c-2,0.3-5.3,0.4-8.4-1.8c0,0-0.1-0.1-0.1-0.1c-0.2-0.2-0.2-0.4,0-0.6c2-1.9,3.5-4.3,4.1-7.1
		c0-0.2,0.1-0.4,0.1-0.6c0.6-2.8,2.1-5.3,4.1-7.1c0,0,0,0,0,0c0.2-0.2,0.1-0.6-0.2-0.7c-0.4-0.1-0.8-0.2-1.2-0.2
		c-0.6-0.1-1.3-0.1-1.9-0.1c-0.6,0-1.2,0-1.8,0.1c-5.3,0.7-9.6,4.3-11.3,9.2c-0.1,0.2-0.3,0.3-0.5,0.2c-2-0.9-4.5-1.4-7.4-1
		c-3.1,0.4-3.6,2.8-3.6,3.9c0,0.3,0.2,0.5,0.5,0.4c0.6-0.2,1.6-0.3,2.6,0.2c1.5,0.7,1.9,2.1,2,2.3c0,0,0,0,0,0
		c2.7,6,10.2,8.7,16.3,7.5c0.3-0.1,0.5-0.1,0.6,0.1l1,2.3c0,0,0.5,2.1,3.3,0.8c2.7-1.3,4-4.1,4-6.5C40.2,26.4,39.5,26.1,38.1,26.3z"
		/>
</g>
<g>
	<path fill="#FFFFFF" d="M80.9,7.4"/>
	<path fill="#FFFFFF" d="M80.9,8.3"/>
	<path fill="#FFFFFF" d="M81.4,9.6v24.8c0,0.2-0.2,0.4-0.4,0.4H62c-0.1,0-0.2,0-0.3-0.1l0,0c-0.3-0.3-0.1-0.8,0.3-0.8h18
		c0.2,0,0.4-0.2,0.4-0.4V7.8c0-0.2-0.2-0.4-0.4-0.4H60.4c-0.2,0-0.4,0.2-0.4,0.4v25.9c0,0.1,0,0.2,0.1,0.3l1.5,1.5
		c0.1,0.1,0.2,0.1,0.3,0.1h19.8c0.2,0,0.4-0.2,0.4-0.4V9.6c0-0.2-0.2-0.4-0.4-0.4h0C81.6,9.2,81.4,9.4,81.4,9.6z M66.4,15.9h2.4
		c0.2,0,0.4-0.2,0.4-0.4v-2.4c0-0.2,0.2-0.4,0.4-0.4h1.8c0.2,0,0.4,0.2,0.4,0.4v2.4c0,0.2,0.2,0.4,0.4,0.4h2.4
		c0.2,0,0.4,0.2,0.4,0.4v1.8c0,0.2-0.2,0.4-0.4,0.4h-2.4c-0.2,0-0.4,0.2-0.4,0.4v7.5c0,0.2-0.2,0.4-0.4,0.4h-1.8
		c-0.2,0-0.4-0.2-0.4-0.4v-7.5c0-0.2-0.2-0.4-0.4-0.4h-2.4c-0.2,0-0.4-0.2-0.4-0.4v-1.8C66,16.1,66.2,15.9,66.4,15.9z"/>
</g>
<g>
	<path fill="#FFFFFF" d="M104.1,45.8h-7.8c-0.6,0-1.2-0.5-1.2-1.2V29.9c0-0.6,0.5-1.2,1.2-1.2c0,0,3.2,0.8,4.2,0.8
		c1,0,3.6-0.8,3.6-0.8c0.6,0,1.2,0.5,1.2,1.2v14.7C105.2,45.3,104.7,45.8,104.1,45.8z"/>
	<path fill="#FFFFFF" d="M100.3,17.5c-1.4,0-2.6,7.2-2.6,8.6c0,1.1,0.7,2,1.6,2.4c-0.3-0.3-0.5-0.7-0.5-1.1c0-0.8,0.7-4.8,1.5-4.8
		s1.5,4,1.5,4.8c0,0.5-0.3,0.9-0.6,1.2c1.1-0.3,1.9-1.3,1.9-2.5C102.9,24.7,101.7,17.5,100.3,17.5z"/>
</g>
<g>
	<path fill="#FFFFFF" d="M133.5,32c0.4,3.1-2.2,5.6-5.2,5.2c-2.1-0.3-3.8-1.9-4-4c-0.4-3.1,2.2-5.6,5.2-5.2
		C131.6,28.3,133.3,29.9,133.5,32z"/>
	<g>
		<path fill="#FFFFFF" d="M114.7,32.6c0,0,0,0,0.1-0.1c0.1-0.1,0.2-0.1,0.3-0.2c0.3-0.2,0.6-0.4,1-0.6c0.4-0.2,0.9-0.4,1.5-0.5
			c0.5-0.1,1.1-0.2,1.7-0.2c0.6,0,1.2,0.1,1.7,0.2c0.5,0.1,1,0.3,1.5,0.5c0.4,0.2,0.8,0.4,1,0.6c0.1,0.1,0.2,0.2,0.3,0.2
			c0.1,0.1,0.1,0.1,0.1,0.1s0,0-0.1,0.1c-0.1,0.1-0.2,0.1-0.3,0.2c-0.3,0.2-0.6,0.4-1,0.6c-0.4,0.2-0.9,0.4-1.5,0.5
			c-0.5,0.1-1.1,0.2-1.7,0.2c-0.6,0-1.2-0.1-1.7-0.2c-0.5-0.1-1-0.3-1.5-0.5c-0.4-0.2-0.8-0.4-1-0.6c-0.1-0.1-0.2-0.2-0.3-0.2
			C114.8,32.7,114.7,32.6,114.7,32.6z"/>
		<path fill="#FFFFFF" d="M133.9,32.6c0,0,0,0,0.1-0.1c0.1-0.1,0.2-0.1,0.3-0.2c0.3-0.2,0.6-0.4,1-0.6c0.4-0.2,0.9-0.4,1.5-0.5
			c0.5-0.1,1.1-0.2,1.7-0.2c0.6,0,1.2,0.1,1.7,0.2c0.5,0.1,1,0.3,1.5,0.5c0.4,0.2,0.8,0.4,1,0.6c0.1,0.1,0.2,0.2,0.3,0.2
			c0.1,0.1,0.1,0.1,0.1,0.1s0,0-0.1,0.1c-0.1,0.1-0.2,0.1-0.3,0.2c-0.3,0.2-0.6,0.4-1,0.6c-0.4,0.2-0.9,0.4-1.5,0.5
			c-0.5,0.1-1.1,0.2-1.7,0.2c-0.6,0-1.2-0.1-1.7-0.2c-0.5-0.1-1-0.3-1.5-0.5c-0.4-0.2-0.8-0.4-1-0.6c-0.1-0.1-0.2-0.2-0.3-0.2
			C133.9,32.7,133.9,32.6,133.9,32.6z"/>
	</g>
	<g>
		<path fill="#FFFFFF" d="M128.9,46.8c0,0,0,0-0.1-0.1c-0.1-0.1-0.1-0.2-0.2-0.3c-0.2-0.3-0.4-0.6-0.6-1c-0.2-0.4-0.4-0.9-0.5-1.5
			c-0.1-0.5-0.2-1.1-0.2-1.7c0-0.6,0.1-1.2,0.2-1.7c0.1-0.5,0.3-1,0.5-1.5c0.2-0.4,0.4-0.8,0.6-1c0.1-0.1,0.2-0.2,0.2-0.3
			c0.1-0.1,0.1-0.1,0.1-0.1s0,0,0.1,0.1c0.1,0.1,0.1,0.2,0.2,0.3c0.2,0.3,0.4,0.6,0.6,1c0.2,0.4,0.4,0.9,0.5,1.5
			c0.1,0.5,0.2,1.1,0.2,1.7c0,0.6-0.1,1.2-0.2,1.7c-0.1,0.5-0.3,1-0.5,1.5c-0.2,0.4-0.4,0.8-0.6,1c-0.1,0.1-0.2,0.2-0.2,0.3
			C129,46.8,128.9,46.8,128.9,46.8z"/>
		<path fill="#FFFFFF" d="M128.9,27.7c0,0,0,0-0.1-0.1c-0.1-0.1-0.1-0.2-0.2-0.3c-0.2-0.3-0.4-0.6-0.6-1c-0.2-0.4-0.4-0.9-0.5-1.5
			c-0.1-0.5-0.2-1.1-0.2-1.7c0-0.6,0.1-1.2,0.2-1.7c0.1-0.5,0.3-1,0.5-1.5c0.2-0.4,0.4-0.8,0.6-1c0.1-0.1,0.2-0.2,0.2-0.3
			c0.1-0.1,0.1-0.1,0.1-0.1s0,0,0.1,0.1c0.1,0.1,0.1,0.2,0.2,0.3c0.2,0.3,0.4,0.6,0.6,1c0.2,0.4,0.4,0.9,0.5,1.5
			c0.1,0.5,0.2,1.1,0.2,1.7c0,0.6-0.1,1.2-0.2,1.7c-0.1,0.5-0.3,1-0.5,1.5c-0.2,0.4-0.4,0.8-0.6,1c-0.1,0.1-0.2,0.2-0.2,0.3
			C129,27.6,128.9,27.7,128.9,27.7z"/>
	</g>
	<g>
		<path fill="#FFFFFF" d="M118.9,42.6c0,0,0-0.1,0-0.1c0-0.1,0-0.2,0-0.4c0-0.3,0.1-0.7,0.3-1.2c0.2-0.4,0.4-0.9,0.7-1.4
			c0.3-0.5,0.7-0.9,1.1-1.3c0.4-0.4,0.9-0.8,1.3-1.1c0.5-0.3,0.9-0.5,1.4-0.7c0.4-0.2,0.9-0.3,1.2-0.3c0.2,0,0.3,0,0.4,0
			c0.1,0,0.1,0,0.1,0s0,0.1,0,0.1c0,0.1,0,0.2,0,0.4c0,0.3-0.1,0.7-0.3,1.2c-0.2,0.4-0.4,0.9-0.7,1.4c-0.3,0.5-0.7,0.9-1.1,1.3
			c-0.4,0.4-0.9,0.8-1.3,1.1c-0.5,0.3-0.9,0.5-1.4,0.7c-0.4,0.2-0.9,0.3-1.2,0.3c-0.2,0-0.3,0-0.4,0
			C118.9,42.6,118.9,42.6,118.9,42.6z"/>
		<path fill="#FFFFFF" d="M132.4,29.1c0,0,0-0.1,0-0.1c0-0.1,0-0.2,0-0.4c0-0.3,0.1-0.7,0.3-1.2c0.2-0.4,0.4-0.9,0.7-1.4
			c0.3-0.5,0.7-0.9,1.1-1.3c0.4-0.4,0.9-0.8,1.3-1.1c0.5-0.3,0.9-0.5,1.4-0.7c0.4-0.2,0.9-0.3,1.2-0.3c0.2,0,0.3,0,0.4,0
			c0.1,0,0.1,0,0.1,0s0,0.1,0,0.1c0,0.1,0,0.2,0,0.4c0,0.3-0.1,0.7-0.3,1.2c-0.2,0.4-0.4,0.9-0.7,1.4c-0.3,0.5-0.7,0.9-1.1,1.3
			c-0.4,0.4-0.9,0.8-1.3,1.1c-0.5,0.3-0.9,0.5-1.4,0.7c-0.4,0.2-0.9,0.3-1.2,0.3c-0.2,0-0.3,0-0.4,0
			C132.5,29.1,132.4,29.1,132.4,29.1z"/>
	</g>
	<g>
		<path fill="#FFFFFF" d="M118.9,22.6c0,0,0.1,0,0.1,0c0.1,0,0.2,0,0.4,0c0.3,0,0.7,0.1,1.2,0.3c0.4,0.2,0.9,0.4,1.4,0.7
			c0.5,0.3,0.9,0.7,1.3,1.1c0.4,0.4,0.8,0.9,1.1,1.3c0.3,0.5,0.5,0.9,0.7,1.4c0.2,0.4,0.3,0.9,0.3,1.2c0,0.2,0,0.3,0,0.4
			c0,0.1,0,0.1,0,0.1c0,0-0.1,0-0.1,0c-0.1,0-0.2,0-0.4,0c-0.3,0-0.7-0.1-1.2-0.3c-0.4-0.2-0.9-0.4-1.4-0.7
			c-0.5-0.3-0.9-0.7-1.3-1.1c-0.4-0.4-0.8-0.9-1.1-1.3c-0.3-0.5-0.5-0.9-0.7-1.4c-0.2-0.4-0.3-0.9-0.3-1.2c0-0.2,0-0.3,0-0.4
			C118.9,22.7,118.9,22.6,118.9,22.6z"/>
		<path fill="#FFFFFF" d="M132.4,36.1c0,0,0.1,0,0.1,0c0.1,0,0.2,0,0.4,0c0.3,0,0.7,0.1,1.2,0.3c0.4,0.2,0.9,0.4,1.4,0.7
			c0.5,0.3,0.9,0.7,1.3,1.1c0.4,0.4,0.8,0.9,1.1,1.3c0.3,0.5,0.5,0.9,0.7,1.4c0.2,0.4,0.3,0.9,0.3,1.2c0,0.2,0,0.3,0,0.4
			c0,0.1,0,0.1,0,0.1s-0.1,0-0.1,0c-0.1,0-0.2,0-0.4,0c-0.3,0-0.7-0.1-1.2-0.3c-0.4-0.2-0.9-0.4-1.4-0.7c-0.5-0.3-0.9-0.7-1.3-1.1
			c-0.4-0.4-0.8-0.9-1.1-1.3c-0.3-0.5-0.5-0.9-0.7-1.4c-0.2-0.4-0.3-0.9-0.3-1.2c0-0.2,0-0.3,0-0.4
			C132.4,36.2,132.4,36.1,132.4,36.1z"/>
	</g>
	<g>
		<g>
			<path fill="#FFFFFF" d="M115.8,27.3c0,0,0,0,0.1,0c0.1,0,0.2-0.1,0.4-0.1c0.3-0.1,0.7-0.1,1.2-0.2c0.5,0,1,0,1.6,0.1
				c0.5,0.1,1.1,0.3,1.6,0.5c0.5,0.2,1,0.5,1.5,0.8c0.5,0.3,0.9,0.7,1.2,1c0.3,0.3,0.6,0.7,0.7,1c0.1,0.1,0.1,0.2,0.2,0.3
				c0,0.1,0.1,0.1,0.1,0.1s0,0-0.1,0c-0.1,0-0.2,0.1-0.4,0.1c-0.3,0.1-0.7,0.1-1.2,0.2c-0.5,0-1,0-1.6-0.1c-0.5-0.1-1.1-0.3-1.6-0.5
				c-0.5-0.2-1-0.5-1.5-0.8c-0.5-0.3-0.9-0.7-1.2-1c-0.3-0.3-0.6-0.7-0.7-1c-0.1-0.1-0.1-0.2-0.2-0.3
				C115.8,27.3,115.8,27.3,115.8,27.3z"/>
			<path fill="#FFFFFF" d="M133.5,34.5c0,0,0,0,0.1,0c0.1,0,0.2-0.1,0.4-0.1c0.3-0.1,0.7-0.1,1.2-0.2c0.5,0,1,0,1.6,0.1
				c0.5,0.1,1.1,0.3,1.6,0.5c0.5,0.2,1,0.5,1.5,0.8c0.5,0.3,0.9,0.7,1.2,1c0.3,0.3,0.6,0.7,0.7,1c0.1,0.1,0.1,0.2,0.2,0.3
				c0,0.1,0.1,0.1,0.1,0.1s0,0-0.1,0c-0.1,0-0.2,0.1-0.4,0.1c-0.3,0.1-0.7,0.1-1.2,0.2c-0.5,0-1,0-1.6-0.1c-0.5-0.1-1.1-0.3-1.6-0.5
				c-0.5-0.2-1-0.5-1.5-0.8c-0.5-0.3-0.9-0.7-1.2-1c-0.3-0.3-0.6-0.7-0.7-1c-0.1-0.1-0.1-0.2-0.2-0.3
				C133.5,34.5,133.5,34.5,133.5,34.5z"/>
		</g>
		<g>
			<path fill="#FFFFFF" d="M123.6,45.8c0,0,0,0,0-0.1c0-0.1-0.1-0.2-0.1-0.4c-0.1-0.3-0.1-0.7-0.2-1.2c0-0.5,0-1,0.1-1.6
				c0.1-0.5,0.3-1.1,0.5-1.6c0.2-0.5,0.5-1,0.8-1.5c0.3-0.5,0.7-0.9,1-1.2c0.3-0.3,0.7-0.6,1-0.7c0.1-0.1,0.2-0.1,0.3-0.2
				c0.1,0,0.1-0.1,0.1-0.1s0,0,0,0.1c0,0.1,0.1,0.2,0.1,0.4c0.1,0.3,0.1,0.7,0.2,1.2c0,0.5,0,1-0.1,1.6c-0.1,0.5-0.3,1.1-0.5,1.6
				c-0.2,0.5-0.5,1-0.8,1.5c-0.3,0.5-0.7,0.9-1,1.2c-0.3,0.3-0.7,0.6-1,0.7c-0.1,0.1-0.2,0.1-0.3,0.2
				C123.6,45.7,123.6,45.8,123.6,45.8z"/>
			<path fill="#FFFFFF" d="M130.8,28c0,0,0,0,0-0.1c0-0.1-0.1-0.2-0.1-0.4c-0.1-0.3-0.1-0.7-0.2-1.2c0-0.5,0-1,0.1-1.6
				c0.1-0.5,0.3-1.1,0.5-1.6c0.2-0.5,0.5-1,0.8-1.5c0.3-0.5,0.7-0.9,1-1.2c0.3-0.3,0.7-0.6,1-0.7c0.1-0.1,0.2-0.1,0.3-0.2
				c0.1,0,0.1-0.1,0.1-0.1s0,0,0,0.1c0,0.1,0.1,0.2,0.1,0.4c0.1,0.3,0.1,0.7,0.2,1.2c0,0.5,0,1-0.1,1.6c-0.1,0.5-0.3,1.1-0.5,1.6
				c-0.2,0.5-0.5,1-0.8,1.5c-0.3,0.5-0.7,0.9-1,1.2c-0.3,0.3-0.7,0.6-1,0.7c-0.1,0.1-0.2,0.1-0.3,0.2C130.8,28,130.8,28,130.8,28z"
				/>
		</g>
		<g>
			<path fill="#FFFFFF" d="M115.9,38.1c0,0,0,0,0.1-0.1c0-0.1,0.1-0.2,0.2-0.3c0.2-0.3,0.4-0.6,0.7-1c0.3-0.4,0.7-0.7,1.2-1
				c0.4-0.3,1-0.6,1.5-0.8c0.5-0.2,1.1-0.4,1.6-0.5c0.5-0.1,1.1-0.1,1.6-0.1c0.5,0,0.9,0.1,1.2,0.2c0.2,0,0.3,0.1,0.4,0.1
				c0.1,0,0.1,0,0.1,0s0,0-0.1,0.1c0,0.1-0.1,0.2-0.2,0.3c-0.2,0.3-0.4,0.6-0.7,1c-0.3,0.4-0.7,0.7-1.2,1c-0.5,0.3-1,0.6-1.5,0.8
				c-0.5,0.2-1.1,0.4-1.6,0.5c-0.5,0.1-1.1,0.1-1.6,0.1c-0.5,0-0.9-0.1-1.2-0.2c-0.2,0-0.3-0.1-0.4-0.1
				C115.9,38.2,115.9,38.1,115.9,38.1z"/>
			<path fill="#FFFFFF" d="M133.5,30.7c0,0,0,0,0.1-0.1c0-0.1,0.1-0.2,0.2-0.3c0.2-0.3,0.4-0.6,0.7-1c0.3-0.4,0.7-0.7,1.2-1
				c0.4-0.3,1-0.6,1.5-0.8c0.5-0.2,1.1-0.4,1.6-0.5c0.5-0.1,1.1-0.1,1.6-0.1c0.5,0,0.9,0.1,1.2,0.2c0.2,0,0.3,0.1,0.4,0.1
				c0.1,0,0.1,0,0.1,0s0,0-0.1,0.1c0,0.1-0.1,0.2-0.2,0.3c-0.2,0.3-0.4,0.6-0.7,1c-0.3,0.4-0.7,0.7-1.2,1c-0.5,0.3-1,0.6-1.5,0.8
				c-0.5,0.2-1.1,0.4-1.6,0.5c-0.5,0.1-1.1,0.1-1.6,0.1c-0.5,0-0.9-0.1-1.2-0.2c-0.2,0-0.3-0.1-0.4-0.1
				C133.5,30.7,133.5,30.7,133.5,30.7z"/>
		</g>
		<g>
			<path fill="#FFFFFF" d="M123.4,19.6c0,0,0,0,0.1,0.1c0.1,0,0.2,0.1,0.3,0.2c0.3,0.2,0.6,0.4,1,0.7c0.4,0.3,0.7,0.7,1,1.2
				c0.3,0.4,0.6,1,0.8,1.5c0.2,0.5,0.4,1.1,0.5,1.6c0.1,0.5,0.1,1.1,0.1,1.6c0,0.5-0.1,0.9-0.2,1.2c0,0.2-0.1,0.3-0.1,0.4
				c0,0.1,0,0.1,0,0.1c0,0,0,0-0.1-0.1c-0.1,0-0.2-0.1-0.3-0.2c-0.3-0.2-0.6-0.4-1-0.7c-0.4-0.3-0.7-0.7-1-1.2
				c-0.3-0.5-0.6-1-0.8-1.5c-0.2-0.5-0.4-1.1-0.5-1.6c-0.1-0.5-0.1-1.1-0.1-1.6c0-0.5,0.1-0.9,0.2-1.2c0-0.2,0.1-0.3,0.1-0.4
				C123.4,19.6,123.4,19.6,123.4,19.6z"/>
			<path fill="#FFFFFF" d="M130.8,37.2c0,0,0,0,0.1,0.1c0.1,0,0.2,0.1,0.3,0.2c0.3,0.2,0.6,0.4,1,0.7c0.4,0.3,0.7,0.7,1,1.2
				c0.3,0.4,0.6,1,0.8,1.5c0.2,0.5,0.4,1.1,0.5,1.6c0.1,0.5,0.1,1.1,0.1,1.6c0,0.5-0.1,0.9-0.2,1.2c0,0.2-0.1,0.3-0.1,0.4
				c0,0.1,0,0.1,0,0.1s0,0-0.1-0.1c-0.1,0-0.2-0.1-0.3-0.2c-0.3-0.2-0.6-0.4-1-0.7c-0.4-0.3-0.7-0.7-1-1.2c-0.3-0.5-0.6-1-0.8-1.5
				c-0.2-0.5-0.4-1.1-0.5-1.6c-0.1-0.5-0.1-1.1-0.1-1.6c0-0.5,0.1-0.9,0.2-1.2c0-0.2,0.1-0.3,0.1-0.4
				C130.8,37.2,130.8,37.2,130.8,37.2z"/>
		</g>
	</g>
</g>
<circle fill="#E52C2C" cx="160.7" cy="179.5" r="47"/>
<g>
	<path fill="#FFFFFF" d="M140.6-14.6L140.6-14.6l2.9-2.8c0,0,0,0,0,0l0.1-0.1c0.3-0.2,0.6-0.2,0.9,0c0.3,0.2,0.5,0.6,0.4,0.9
		c-0.1,0.2-0.2,0.3-0.2,0.4l-0.1,0.1c0,0,0,0,0,0l-1.2,1.1l0.2,0.2l5.2-5c0.3-0.3,0.8-0.3,1.2,0c0.3,0.3,0.3,0.8,0,1.2l-4,3.9
		l0.2,0.2l4.7-4.5c0.3-0.3,0.8-0.3,1.1,0c0.3,0.3,0.3,0.8,0,1.2l-4.7,4.5l0.2,0.2l4-3.9c0.3-0.3,0.8-0.3,1.2,0
		c0.3,0.3,0.3,0.8,0,1.2l-4.6,4.5l0.2,0.2l2-1.9c0.3-0.3,0.8-0.3,1.2,0c0.3,0.3,0.3,0.8-0.2,1.3l-4.4,4.2c-1.5,1.5-4.5,1.4-6.3-0.5
		C138.7-9.9,138.8-12.8,140.6-14.6z"/>
	<path fill="#FFFFFF" d="M147.5-33.4L147.5-33.4l2.8,2.9c0,0,0,0,0,0l0.1,0.1c0.2,0.3,0.2,0.6,0,0.9c-0.2,0.3-0.6,0.5-0.9,0.4
		c-0.2-0.1-0.3-0.2-0.4-0.2l-0.1-0.1c0,0,0,0,0,0l-1.1-1.2l-0.2,0.2l5,5.2c0.3,0.3,0.3,0.8,0,1.2c-0.3,0.3-0.8,0.3-1.2,0l-3.9-4
		l-0.2,0.2l4.5,4.7c0.3,0.3,0.3,0.8,0,1.1c-0.3,0.3-0.8,0.3-1.2,0l-4.5-4.7l-0.2,0.2l3.9,4c0.3,0.3,0.3,0.8,0,1.2
		c-0.3,0.3-0.8,0.3-1.2,0l-4.5-4.6l-0.2,0.2l1.9,2c0.3,0.3,0.3,0.8,0,1.2c-0.3,0.3-0.8,0.3-1.3-0.2l-4.2-4.4
		c-1.5-1.5-1.4-4.5,0.5-6.3C142.7-35.3,145.7-35.3,147.5-33.4z"/>
	<path fill="#FFFFFF" d="M140.6-14.6L140.6-14.6l2.9-2.8c0,0,0,0,0,0l0.1-0.1c0.3-0.2,0.6-0.2,0.9,0c0.3,0.2,0.5,0.6,0.4,0.9
		c-0.1,0.2-0.2,0.3-0.2,0.4l-0.1,0.1c0,0,0,0,0,0l-1.2,1.1l0.2,0.2l5.2-5c0.3-0.3,0.8-0.3,1.2,0c0.3,0.3,0.3,0.8,0,1.2l-4,3.9
		l0.2,0.2l4.7-4.5c0.3-0.3,0.8-0.3,1.1,0c0.3,0.3,0.3,0.8,0,1.2l-4.7,4.5l0.2,0.2l4-3.9c0.3-0.3,0.8-0.3,1.2,0
		c0.3,0.3,0.3,0.8,0,1.2l-4.6,4.5l0.2,0.2l2-1.9c0.3-0.3,0.8-0.3,1.2,0c0.3,0.3,0.3,0.8-0.2,1.3l-4.4,4.2c-1.5,1.5-4.5,1.4-6.3-0.5
		C138.7-9.9,138.8-12.8,140.6-14.6z"/>
	<path fill="#FFFFFF" d="M147.5-33.4L147.5-33.4l2.8,2.9c0,0,0,0,0,0l0.1,0.1c0.2,0.3,0.2,0.6,0,0.9c-0.2,0.3-0.6,0.5-0.9,0.4
		c-0.2-0.1-0.3-0.2-0.4-0.2l-0.1-0.1c0,0,0,0,0,0l-1.1-1.2l-0.2,0.2l5,5.2c0.3,0.3,0.3,0.8,0,1.2c-0.3,0.3-0.8,0.3-1.2,0l-3.9-4
		l-0.2,0.2l4.5,4.7c0.3,0.3,0.3,0.8,0,1.1c-0.3,0.3-0.8,0.3-1.2,0l-4.5-4.7l-0.2,0.2l3.9,4c0.3,0.3,0.3,0.8,0,1.2
		c-0.3,0.3-0.8,0.3-1.2,0l-4.5-4.6l-0.2,0.2l1.9,2c0.3,0.3,0.3,0.8,0,1.2c-0.3,0.3-0.8,0.3-1.3-0.2l-4.2-4.4
		c-1.5-1.5-1.4-4.5,0.5-6.3C142.7-35.3,145.7-35.3,147.5-33.4z"/>
	<path fill="#FFFFFF" d="M166.3-14.6L166.3-14.6l-2.9-2.8c0,0,0,0,0,0l-0.1-0.1c-0.3-0.2-0.6-0.2-0.9,0c-0.3,0.2-0.5,0.6-0.4,0.9
		c0.1,0.2,0.2,0.3,0.2,0.4l0.1,0.1c0,0,0,0,0,0l1.2,1.1l-0.2,0.2l-5.2-5c-0.3-0.3-0.8-0.3-1.2,0c-0.3,0.3-0.3,0.8,0,1.2l4,3.9
		l-0.2,0.2L156-19c-0.3-0.3-0.8-0.3-1.1,0c-0.3,0.3-0.3,0.8,0,1.2l4.7,4.5l-0.2,0.2l-4-3.9c-0.3-0.3-0.8-0.3-1.2,0
		c-0.3,0.3-0.3,0.8,0,1.2l4.6,4.5l-0.2,0.2l-2-1.9c-0.3-0.3-0.8-0.3-1.2,0c-0.3,0.3-0.3,0.8,0.2,1.3l4.4,4.2
		c1.5,1.5,4.5,1.4,6.3-0.5C168.2-9.9,168.1-12.8,166.3-14.6z"/>
	<path fill="#FFFFFF" d="M159.4-33.4L159.4-33.4l-2.8,2.9c0,0,0,0,0,0l-0.1,0.1c-0.2,0.3-0.2,0.6,0,0.9c0.2,0.3,0.6,0.5,0.9,0.4
		c0.2-0.1,0.3-0.2,0.4-0.2l0.1-0.1c0,0,0,0,0,0l1.1-1.2l0.2,0.2l-5,5.2c-0.3,0.3-0.3,0.8,0,1.2c0.3,0.3,0.8,0.3,1.2,0l3.9-4l0.2,0.2
		l-4.5,4.7c-0.3,0.3-0.3,0.8,0,1.1c0.3,0.3,0.8,0.3,1.2,0l4.5-4.7l0.2,0.2l-3.9,4c-0.3,0.3-0.3,0.8,0,1.2c0.3,0.3,0.8,0.3,1.2,0
		l4.5-4.6l0.2,0.2l-1.9,2c-0.3,0.3-0.3,0.8,0,1.2c0.3,0.3,0.8,0.3,1.3-0.2l4.2-4.4c1.5-1.5,1.4-4.5-0.5-6.3
		C164.2-35.3,161.2-35.2,159.4-33.4z"/>
</g>
<g>
	<g id="Layer_x0020_1_1_">
		<ellipse fill="#FFFFFF" cx="198.9" cy="2.4" rx="2.3" ry="2.3"/>
		<path fill="#FFFFFF" d="M196.2,27.1c0,0.7,0.6,1.3,1.3,1.3c0.7,0,1.3-0.6,1.3-1.3V16.3h0.6v10.8c0,0.7,0.6,1.3,1.3,1.3
			c0.7,0,1.3-0.6,1.3-1.3V8.4h0.6v6.9c0,1.4,1.8,1.4,1.8,0V8.2c0-1.5-0.9-3-2.7-3h-5.2c-1.6,0-2.7,1.3-2.7,3v7.1
			c0,1.4,1.8,1.4,1.8,0V8.4h0.6L196.2,27.1L196.2,27.1z"/>
		<path fill="#FFFFFF" d="M191.3,7.1c1.5,0,2.1,1.2,2.3,1.9l1.8,6c0.4,1.3-1.3,1.8-1.7,0.6l-1.6-5.5h-0.5l2.8,9.8h-2.6v7.6
			c0,1.3-1.9,1.3-1.9,0v-7.7h-0.8v7.7c0,1.3-1.9,1.3-1.9,0v-7.6h-2.6l2.8-9.8h-0.4l-1.7,5.5c-0.4,1.2-2.1,0.7-1.7-0.6l1.8-6
			c0.2-0.7,0.8-1.9,2.3-1.9L191.3,7.1L191.3,7.1z"/>
		<ellipse fill="#FFFFFF" cx="189.5" cy="4.6" rx="2.1" ry="2.1"/>
		<path fill="#FFFFFF" d="M208.4,15c0.9,0,1.3,0.8,1.5,1.2L211,20c0.2,0.8-0.8,1.1-1,0.4l-1-3.4h-0.3l1.8,6.1h-1.6v4.8
			c0,0.8-1.2,0.8-1.2,0V23H207v4.8c0,0.8-1.2,0.8-1.2,0V23h-1.6l1.8-6.1h-0.3l-1,3.5c-0.2,0.7-1.3,0.5-1-0.4l1.1-3.8
			c0.1-0.4,0.5-1.2,1.5-1.2L208.4,15L208.4,15z"/>
		<ellipse fill="#FFFFFF" cx="207.2" cy="13.4" rx="1.3" ry="1.3"/>
		<ellipse fill="#FFFFFF" cx="179.3" cy="10.3" rx="1.6" ry="1.6"/>
		<path fill="#FFFFFF" d="M177.4,27.5c0,0.5,0.4,0.9,0.9,0.9s0.9-0.4,0.9-0.9l0-7.5h0.4v7.5c0,0.5,0.4,0.9,0.9,0.9
			c0.5,0,0.9-0.4,0.9-0.9v-13h0.4v4.8c0,1,1.3,1,1.2,0v-4.9c0-1.1-0.6-2.1-1.9-2.1h-3.6c-1.1,0-1.8,0.9-1.8,2.1v4.9c0,1,1.3,1,1.3,0
			v-4.8h0.5L177.4,27.5L177.4,27.5z"/>
	</g>
</g>
</svg>
