<?xml version="1.0" encoding="utf-8"?>
<!-- Generator: Adobe Illustrator 16.0.0, SVG Export Plug-In . SVG Version: 6.00 Build 0)  -->
<!DOCTYPE svg PUBLIC "-//W3C//DTD SVG 1.1//EN" "http://www.w3.org/Graphics/SVG/1.1/DTD/svg11.dtd">
<svg version="1.1" id="Layer_1" xmlns="http://www.w3.org/2000/svg" xmlns:xlink="http://www.w3.org/1999/xlink" x="0px" y="0px"
	 width="67.143px" height="100px" viewBox="0 0 67.143 100" enable-background="new 0 0 67.143 100" xml:space="preserve">
<path fill="#010101" d="M62.143,25.714H42.857V5c0-2.75-2.251-5-5-5h-8.572c-2.75,0-5,2.25-5,5v20.714H5c-2.75,0-5,2.25-5,5v8.571
	c0,2.75,2.25,5,5,5h19.286V95c0,2.75,2.25,5,5,5h8.572c2.749,0,5-2.25,5-5V44.286h19.285c2.75,0,5-2.25,5-5v-8.571
	C67.143,27.964,64.893,25.714,62.143,25.714z"/>
</svg>
