<svg xmlns="http://www.w3.org/2000/svg" xmlns:xlink="http://www.w3.org/1999/xlink" version="1.1" id="Icon" x="0px" y="0px" width="99.9px" height="91.2px" viewBox="0 0 99.9 91.2" enable-background="new 0 0 99.9 91.2" xml:space="preserve">
<path id="Candle" d="M52.5,29.3C49.2,31.9,42.2,33.7,34,34v40.3h18.5V29.3z M37.8,26.3c6.3,5.3,16.2-1.1,12.2-9.6  C46.3,8.4,44.9,0,44.9,0C34.8,13.1,32.6,22,37.8,26.3z M98.1,61.5c-5.1-8.9-18-8.9-23.1,0C71.8,67,73,73.3,76.8,77.3  c-22.6,0-76.8,0-76.8,0C0,85,6.3,91.2,14,91.2h58.5c7.7,0,14-6.2,14-13.9c-7.1,0-11.5-7.6-7.9-13.8c3.5-6.1,12.4-6.1,15.9,0  c2.2,3.9,1.3,8.3-1.5,11.1l3,3C100,73.6,101.3,67.1,98.1,61.5z"/>
</svg>