<svg xmlns="http://www.w3.org/2000/svg" xmlns:xlink="http://www.w3.org/1999/xlink" version="1.1" x="0px" y="0px" width="100px" height="100px" viewBox="0 0 100 100" enable-background="new 0 0 100 100" xml:space="preserve">
<g id="Captions">
</g>
<g id="Your_Icon">
	<path fill="#000000" d="M77.067,50.035c0,15.113-11.912,27.361-26.611,27.361c-14.683,0-26.595-12.248-26.595-27.361   c0-15.114,11.912-27.361,26.595-27.361C65.155,22.674,77.067,34.921,77.067,50.035z"/>
	<path fill="#000000" d="M51.542,18.25c0.687,0.088,1.333,0.16,2.012,0.16c0.319,0,0.647-0.016,0.99-0.064   c1.038-0.135,1.709-0.503,2.028-1.109c0.934-1.717-0.767-5.245-2.132-8.088c-0.811-1.692-1.513-3.146-1.669-4.184   c-0.176-0.423-0.279-0.926-0.391-1.461c-0.32-1.541-0.596-2.467-1.653-2.467h-0.159c-0.918,0.071-1.529,1.892-1.853,2.866   l-0.399,1.182c-0.503,1.524-0.978,2.97-1.9,4.359c-0.167,0.255-0.343,0.494-0.519,0.758c-1.146,1.677-2.34,3.409-2.12,5.317   c0.24,2.188,1.665,3.306,3.602,2.803C48.676,17.995,50.177,18.091,51.542,18.25z"/>
	<path fill="#000000" d="M45.897,89.828c0.176,0.263,0.352,0.511,0.519,0.758c0.923,1.39,1.397,2.835,1.9,4.359l0.399,1.182   c0.323,0.982,0.935,2.795,1.853,2.866l0.159,0.009c1.058,0,1.333-0.935,1.653-2.468c0.111-0.543,0.215-1.038,0.391-1.469   c0.156-1.03,0.858-2.491,1.669-4.184c1.365-2.835,3.065-6.371,2.132-8.088c-0.319-0.606-0.99-0.966-2.028-1.11   c-1.038-0.144-1.988-0.023-3.002,0.096c-1.361,0.16-2.866,0.256-4.163-0.071c-0.316-0.088-0.619-0.12-0.902-0.12   c-1.489,0-2.495,1.086-2.699,2.923C43.558,86.427,44.752,88.151,45.897,89.828z"/>
	<g>
		<path fill="#000000" d="M19.693,45.468c-0.271-2.1-1.337-2.371-2.235-2.371c-1.824,0-4.384,1.31-6.643,2.459    c-1.645,0.839-3.062,1.565-4.072,1.725c-0.415,0.184-0.91,0.288-1.425,0.399c-1.688,0.375-2.467,0.687-2.388,1.9    c0.068,0.974,1.841,1.597,2.782,1.932l1.143,0.407c1.429,0.503,2.89,1.015,4.247,1.965c0.239,0.167,0.487,0.351,0.734,0.534    c1.617,1.174,3.29,2.396,5.13,2.18c1.066-0.127,1.889-0.551,2.363-1.245c0.463-0.655,0.579-1.525,0.348-2.507    c-0.375-1.549-0.216-2.923-0.076-4.264C19.718,47.536,19.833,46.538,19.693,45.468z"/>
		<path fill="#000000" d="M81.594,55.353c0.479,0.694,1.294,1.118,2.363,1.245c1.86,0.216,3.521-0.998,5.13-2.18    c0.252-0.184,0.499-0.367,0.739-0.534c1.353-0.95,2.826-1.462,4.247-1.973l1.142-0.399c0.942-0.335,2.715-0.958,2.778-1.932    c0.088-1.214-0.702-1.525-2.379-1.9c-0.519-0.111-1.014-0.216-1.438-0.399c-1.002-0.159-2.427-0.886-4.063-1.725    c-2.26-1.149-4.818-2.459-6.646-2.459c-0.898,0-1.961,0.271-2.231,2.371c-0.14,1.07-0.028,2.068,0.096,3.114    c0.14,1.341,0.287,2.715-0.08,4.264C81.016,53.827,81.139,54.697,81.594,55.353z"/>
	</g>
	<path fill="#000000" d="M27.666,17.651c-0.184,2.036-0.371,4.152,0.738,5.701c0.702,0.966,1.572,1.501,2.451,1.509   c0.694,0,1.397-0.336,2.016-0.958c1.122-1.11,2.363-1.661,3.557-2.196c0.95-0.423,1.837-0.822,2.651-1.469   c0.858-0.687,1.261-1.357,1.229-2.067c-0.064-1.965-3.218-4.128-5.761-5.869c-1.521-1.037-2.838-1.947-3.469-2.762   c-0.371-0.28-0.703-0.663-1.062-1.062c-0.603-0.702-1.293-1.484-1.972-1.484c-0.243,0-0.491,0.096-0.767,0.287   c-0.782,0.543-0.423,2.443-0.231,3.465l0.231,1.229c0.3,1.581,0.591,3.082,0.463,4.743C27.726,17.021,27.697,17.332,27.666,17.651z   "/>
	<path fill="#000000" d="M74.808,87.561c-0.371-0.967-0.471-2.604-0.583-4.479c-0.239-3.713-0.522-8.335-2.974-8.335   c-0.403,0-0.866,0.111-1.386,0.327c-0.954,0.415-1.729,1.006-2.555,1.637c-1.054,0.798-2.14,1.629-3.637,2.076   c-0.898,0.263-1.553,0.767-1.88,1.469c-0.376,0.782-0.336,1.788,0.104,2.843c0.742,1.756,2.603,2.643,4.411,3.505   c0.275,0.127,0.547,0.255,0.814,0.391c1.469,0.727,2.639,1.78,3.769,2.795l0.922,0.814c0.774,0.702,2.172,1.932,2.971,1.524   c1.062-0.535,0.926-1.389,0.391-3.09C75.016,88.511,74.855,88.016,74.808,87.561z"/>
	<path fill="#000000" d="M73.702,7.424c-0.831,0-1.952,1.014-2.623,1.613l-0.91,0.806c-1.126,1.022-2.3,2.076-3.769,2.803   c-0.264,0.128-0.535,0.264-0.814,0.392c-1.805,0.854-3.673,1.74-4.411,3.497c-0.443,1.054-0.483,2.067-0.107,2.85   c0.335,0.695,0.981,1.206,1.884,1.47c1.501,0.438,2.583,1.27,3.633,2.084c0.822,0.622,1.601,1.213,2.555,1.62   c0.52,0.224,0.986,0.336,1.386,0.336l0,0c2.459,0,2.742-4.631,2.966-8.344c0.12-1.876,0.224-3.505,0.591-4.471   c0.052-0.464,0.208-0.959,0.371-1.478c0.527-1.7,0.667-2.562-0.387-3.09C73.953,7.456,73.834,7.424,73.702,7.424z"/>
	<path fill="#000000" d="M27.326,92.646c0.671,0,1.357-0.791,1.973-1.478c0.351-0.407,0.69-0.79,1.05-1.069   c0.635-0.822,1.956-1.725,3.473-2.771c2.543-1.741,5.696-3.904,5.769-5.86c0.032-0.711-0.379-1.39-1.229-2.068   c-0.822-0.654-1.709-1.046-2.65-1.469c-1.202-0.535-2.443-1.086-3.562-2.204c-0.622-0.622-1.321-0.941-2.008-0.941   c-0.891,0-1.761,0.534-2.455,1.501c-1.117,1.549-0.926,3.656-0.742,5.7c0.02,0.319,0.056,0.623,0.071,0.935   c0.128,1.66-0.176,3.226-0.459,4.734l-0.231,1.237c-0.195,1.014-0.555,2.914,0.228,3.465   C26.827,92.551,27.079,92.646,27.326,92.646z"/>
	<path fill="#000000" d="M11.478,29.029c0.99,1.157,2.005,2.363,2.715,3.872c0.124,0.271,0.247,0.551,0.375,0.838   c0.835,1.86,1.693,3.793,3.394,4.551c0.551,0.24,1.078,0.368,1.577,0.368l0,0c1.257,0,2.167-0.791,2.566-2.212   c0.432-1.533,1.237-2.651,2.013-3.729c0.614-0.854,1.193-1.653,1.588-2.643c0.42-1.055,0.432-1.86,0.049-2.468   c-1.03-1.62-4.779-1.868-7.801-2.06c-1.824-0.12-3.405-0.224-4.359-0.606c-0.447-0.057-0.93-0.224-1.438-0.392   c-0.61-0.199-1.241-0.407-1.772-0.407c-0.566,0-0.906,0.231-1.182,0.814c-0.415,0.887,0.818,2.339,1.481,3.122L11.478,29.029z"/>
	<path fill="#000000" d="M75.438,68.127c-0.663,0.711-0.986,1.509-0.918,2.308c0.071,0.854,0.583,1.685,1.461,2.355   c0.798,0.606,1.832,0.894,3.262,0.894c0.738,0,1.497-0.071,2.235-0.144c0.299-0.032,0.606-0.063,0.902-0.08   c0.26-0.023,0.515-0.031,0.771-0.031c1.337,0,2.614,0.263,3.856,0.511l1.193,0.239c0.579,0.12,1.293,0.256,1.952,0.256   c1.042,0,1.289-0.367,1.365-0.487c0.663-1.006,0.132-1.692-1.149-2.89c-0.399-0.359-0.775-0.711-1.042-1.086   c-0.795-0.647-1.673-2.013-2.687-3.577c-1.617-2.507-3.833-5.933-5.717-5.933c-0.663,0-1.286,0.415-1.916,1.262   c-0.639,0.847-1.022,1.765-1.43,2.738C77.06,65.7,76.517,66.97,75.438,68.127z"/>
	<path fill="#000000" d="M13.753,66.395c-1.002,1.564-1.884,2.93-2.674,3.577c-0.28,0.375-0.651,0.727-1.038,1.086   c-1.29,1.197-1.828,1.884-1.158,2.89c0.08,0.12,0.319,0.487,1.357,0.487c0.667,0,1.39-0.136,1.964-0.256l1.19-0.239   c1.477-0.296,3.006-0.615,4.631-0.479c0.295,0.017,0.59,0.048,0.894,0.08c0.738,0.072,1.493,0.144,2.231,0.144   c1.441,0,2.472-0.287,3.27-0.894c0.87-0.671,1.394-1.501,1.461-2.355c0.072-0.799-0.247-1.597-0.926-2.308   c-1.07-1.157-1.613-2.436-2.132-3.665c-0.407-0.974-0.79-1.892-1.429-2.738c-0.631-0.847-1.258-1.262-1.917-1.262   C17.594,60.462,15.378,63.896,13.753,66.395z"/>
	<path fill="#000000" d="M85.826,33.747c0.127-0.287,0.255-0.574,0.391-0.846c0.703-1.518,1.717-2.715,2.703-3.881l0.798-0.941   c0.667-0.783,1.896-2.235,1.481-3.122c-0.275-0.583-0.615-0.814-1.182-0.814c-0.531,0-1.162,0.208-1.776,0.407   c-0.503,0.168-0.986,0.335-1.434,0.383c-0.95,0.392-2.535,0.495-4.355,0.615c-3.021,0.191-6.771,0.439-7.796,2.06   c-0.392,0.607-0.375,1.413,0.044,2.468c0.396,0.989,0.97,1.788,1.593,2.643c0.774,1.077,1.581,2.195,2.008,3.729   c0.555,1.988,2.208,2.698,4.14,1.844C84.141,37.532,85.004,35.607,85.826,33.747z"/>
</g>
</svg>