<svg xmlns="http://www.w3.org/2000/svg" xmlns:xlink="http://www.w3.org/1999/xlink" version="1.1" id="Your_Icon" x="0px" y="0px" viewBox="0 0 100 100" enable-background="new 0 0 100 100" xml:space="preserve" height="100px" width="100px">
<g>
	<g>
		<circle fill="#000000" cx="29.8" cy="23.2" r="7.8"/>
	</g>
	<g>
		<path fill="#000000" d="M34.4,77.9h-26c-2.7,0-4.8-2.2-4.8-4.8c0-2.7,2.2-4.8,4.8-4.8h12.6l-5.2-4.3c-1.6-1.3-2.2-3.4-1.5-5.4    L22,37.1c0.4-1.2,1.4-2.2,2.5-2.7c1.2-0.5,2.5-0.6,3.7-0.1l12.4,4.9h11.7c2.7,0,4.8,2.2,4.8,4.8c0,2.7-2.2,4.8-4.8,4.8H39.8    c-0.6,0-1.2-0.1-1.8-0.3L29.4,45l-5,13.8l13,10.7c1.6,1.3,2.2,3.4,1.5,5.3C38.2,76.7,36.4,77.9,34.4,77.9z"/>
	</g>
</g>
<g>
	<g>
		<circle fill="#000000" cx="81.7" cy="32.2" r="6.6"/>
	</g>
	<path fill="#000000" d="M95.9,73.6L91,67.6l-3.3-7.6c0-0.1,0-0.2,0-0.3l-0.9-15.8c0,0,0,0,0,0l0-0.1c0,0,0-0.1,0-0.1   c0-0.1,0-0.2-0.1-0.4c0,0,0-0.1,0-0.1c0,0,0-0.1,0-0.1c0-0.1-0.1-0.2-0.1-0.4c0,0,0-0.1,0-0.1c0,0,0,0,0,0c0-0.1-0.1-0.1-0.1-0.2   c-0.1-0.1-0.1-0.2-0.2-0.3c0,0,0,0,0-0.1c0-0.1-0.1-0.1-0.1-0.2c-0.1-0.1-0.1-0.1-0.2-0.2c0,0,0,0,0,0c0,0,0,0-0.1-0.1   c0,0-0.1-0.1-0.1-0.1c-0.1,0-0.1-0.1-0.2-0.1c-0.1,0-0.1-0.1-0.2-0.1c0,0,0,0,0,0c-0.1-0.1-0.2-0.1-0.4-0.2c0,0-0.1,0-0.1-0.1   c0,0,0,0,0,0c-0.1,0-0.2-0.1-0.3-0.1c-0.1,0-0.2,0-0.3-0.1c-0.1,0-0.1,0-0.2,0l-10.1-1.7l-5.9-3c-1.6-0.8-3.5-0.2-4.3,1.4   c-0.8,1.6-0.2,3.5,1.4,4.3l6.3,3.2c0.3,0.1,0.6,0.2,0.9,0.3l4.6,0.8l-1.3,1.3h-9.1c-1.8,0-3.2,1.4-3.2,3.2c0,1.8,1.4,3.2,3.2,3.2   H77c0.9,0,1.7-0.3,2.3-0.9l1.1-1.1V58L74,74.5c-0.6,1.6,0.2,3.5,1.8,4.1c0.4,0.1,0.8,0.2,1.1,0.2c1.3,0,2.5-0.8,3-2.1l3.8-9.8   l1.5,3.5c0.1,0.3,0.3,0.5,0.4,0.7l5.2,6.4c0.6,0.8,1.6,1.2,2.5,1.2c0.7,0,1.4-0.2,2-0.7C96.8,77,97,75,95.9,73.6z"/>
</g>
</svg>