<?xml version="1.0" encoding="utf-8"?>
<!-- Generator: Adobe Illustrator 18.0.0, SVG Export Plug-In . SVG Version: 6.00 Build 0)  -->
<!DOCTYPE svg PUBLIC "-//W3C//DTD SVG 1.1//EN" "http://www.w3.org/Graphics/SVG/1.1/DTD/svg11.dtd">
<svg version="1.1" id="Layer_1" xmlns="http://www.w3.org/2000/svg" xmlns:xlink="http://www.w3.org/1999/xlink" x="0px" y="0px"
	 viewBox="0 0 100 100" enable-background="new 0 0 100 100" xml:space="preserve">
<path fill="#46008C" d="M47.7,50.5l-0.8,19.9c0,0-3.4,8.9-8.2,8.9c0,0,0.4,1.4,2,1.4c2.3,0,6-0.9,6.7-2.2c0,0,0.4,1.7,1.6,2.8
	c0.5,0.5,1.8,0.2,2.4,0.1c0,0-0.4-1.6,0.8-2.1c0,0,1.7,1.2,3.8,1.9c0.9,0.3,1.4-0.3,2.7-0.8c0,0-6-3.9-6-10s-0.3-21.2-0.3-21.2
	s-0.2-2.6,3.5-5.2c3.7-2.6,12.9-9,12.9-9l5,2.8l1.1-1.2l-3.7-2.7l3.2-3.5l-1.3-1.7l-3.9,2.1l-1.3-5.7h-2l0.3,6.9l-7.3,5.2l-3.9-6.3
	l7.1-10.8l-1.9-1.5L58.2,21l-3.1-3.7l-1.5,0.4l1.9,7l-2.3,2.4L48.5,21l-2.1,0.9l1.1,2.8h-9.4l-0.5-7.4h-1.9l-0.5,7.1l-6.1-2.5
	l-0.8,1.9l7.8,3.7l13.1,0.6l6.7,11.2l-6.1,3.9c0,0-1.3,0.8-1.3,2.5l-5.4-4.9L42.3,35h-1.8l-0.8,2.8l-4.8-5l-2,1l1.2,1.5L28.4,35
	l-0.6,1.3l7.7,1.8l2.5,2l-6.5,1.2l0.4,2.3l8.9-0.1L47.7,50.5z"/>
<path fill="#46008C" d="M62.2,77.2c0,1.2-1,2.2-2.2,2.2c-1.2,0-2.2-1-2.2-2.2s1-5.4,2.2-5.4C61.2,71.8,62.2,76,62.2,77.2z"/>
<path fill="#46008C" d="M55.5,81.7C54.4,82,53.2,81.2,53,80c-0.2-1.2,0.5-2.3,1.7-2.6c1.2-0.2,5.5-0.1,5.7,1.1
	C60.7,79.7,56.7,81.5,55.5,81.7z"/>
<path fill="#46008C" d="M52.3,77.1c1.2,0.2,2,1.3,1.8,2.5c-0.2,1.2-1.3,2-2.5,1.8c-1.2-0.2-5.2-1.9-4.9-3.1
	C46.8,77.1,51.2,76.9,52.3,77.1z"/>
<path fill="#46008C" d="M59,79.9c-1.1,0.4-2.4-0.3-2.7-1.4c-0.4-1.1,0.3-2.4,1.4-2.7c1.1-0.4,5.5-0.7,5.8,0.4
	C63.8,77.3,60.1,79.5,59,79.9z"/>
<path fill="#46008C" d="M61,77.5c-0.1,1.2-1.1,2.1-2.3,2.1c-1.2-0.1-2.1-1.1-2.1-2.3c0.1-1.2,1.2-5.4,2.4-5.3
	C60.3,72.1,61.1,76.3,61,77.5z"/>
<path fill="#46008C" d="M57.9,76c0.2,1.2-0.6,2.3-1.8,2.5c-1.2,0.2-2.3-0.6-2.5-1.8c-0.2-1.2,0.1-5.5,1.3-5.7
	C56.1,70.8,57.7,74.8,57.9,76z"/>
<path fill="#46008C" d="M55.7,77.6c-0.2,1.2-1.3,2-2.5,1.8c-1.2-0.2-2-1.3-1.8-2.5c0.2-1.2,1.9-5.2,3.1-5
	C55.6,72.1,55.9,76.4,55.7,77.6z"/>
<path fill="#46008C" d="M59.7,75.3c0.9,0.8,0.9,2.2,0.1,3.1c-0.8,0.9-2.2,0.9-3.1,0.1c-0.9-0.8-3.3-4.4-2.5-5.3
	C55.1,72.3,58.8,74.5,59.7,75.3z"/>
<path fill="#46008C" d="M44.3,79.7c-0.6,1.1-1.9,1.4-3,0.9c-1.1-0.6-1.4-1.9-0.9-3c0.6-1.1,3.4-4.3,4.5-3.7
	C46.1,74.5,44.9,78.6,44.3,79.7z"/>
<path fill="#46008C" d="M44.3,76.8c1,0.7,1.2,2.1,0.4,3.1s-2.1,1.2-3.1,0.4c-1-0.7-3.7-4-3-5C39.4,74.3,43.4,76.1,44.3,76.8z"/>
<path fill="#46008C" d="M44.2,77c0.2-1.2,1.4-2,2.6-1.7c1.2,0.2,2,1.4,1.7,2.6c-0.2,1.2-2,5.1-3.2,4.9C44.1,82.5,44,78.2,44.2,77z"
	/>
</svg>
